<?xml version="1.0" encoding="UTF-8" standalone="no"?>
<!DOCTYPE svg PUBLIC "-//W3C//DTD SVG 1.1//EN"
 "http://www.w3.org/Graphics/SVG/1.1/DTD/svg11.dtd">
<!-- Generated by graphviz version 2.43.0 (0)
 -->
<!-- Title: handleRFID Pages: 1 -->
<svg width="274pt" height="101pt"
 viewBox="0.00 0.00 274.00 101.00" xmlns="http://www.w3.org/2000/svg" xmlns:xlink="http://www.w3.org/1999/xlink">
<g id="graph0" class="graph" transform="scale(1 1) rotate(0) translate(4 97)">
<title>handleRFID</title>
<!-- Node1 -->
<g id="Node000001" class="node">
<title>Node1</title>
<g id="a_Node000001"><a xlink:title="Handles RFID card detection and request publishing.">
<polygon fill="#999999" stroke="#666666" points="73,-56 0,-56 0,-37 73,-37 73,-56"/>
<text text-anchor="middle" x="36.5" y="-44" font-family="Helvetica,sans-Serif" font-size="10.00">handleRFID</text>
</a>
</g>
</g>
<!-- Node2 -->
<g id="Node000002" class="node">
<title>Node2</title>
<g id="a_Node000002"><a xlink:href="esp1__rfid__motion_8ino.html#a1eec526201dccd228883774259151450" target="_top" xlink:title="Clears an LCD line and prints a flash&#45;resident string.">
<polygon fill="white" stroke="#666666" points="191,-93 117,-93 117,-74 191,-74 191,-93"/>
<text text-anchor="middle" x="154" y="-81" font-family="Helvetica,sans-Serif" font-size="10.00">lcdPrintLine</text>
</a>
</g>
</g>
<!-- Node1&#45;&gt;Node2 -->
<g id="edge1_Node000001_Node000002" class="edge">
<title>Node1&#45;&gt;Node2</title>
<g id="a_edge1_Node000001_Node000002"><a xlink:title=" ">
<path fill="none" stroke="#63b8ff" d="M67.24,-56.03C81.28,-60.52 98.23,-65.95 113.34,-70.8"/>
<polygon fill="#63b8ff" stroke="#63b8ff" points="112.36,-74.16 122.96,-73.88 114.5,-67.49 112.36,-74.16"/>
</a>
</g>
</g>
<!-- Node4 -->
<g id="Node000004" class="node">
<title>Node4</title>
<g id="a_Node000004"><a xlink:href="esp1__rfid__motion_8ino.html#a2251823e12f034625cf955d83d4ec6b6" target="_top" xlink:title="MFRC522 RFID reader instance.">
<polygon fill="white" stroke="#666666" points="182.5,-56 125.5,-56 125.5,-37 182.5,-37 182.5,-56"/>
<text text-anchor="middle" x="154" y="-44" font-family="Helvetica,sans-Serif" font-size="10.00">mfrc522</text>
</a>
</g>
</g>
<!-- Node1&#45;&gt;Node4 -->
<g id="edge3_Node000001_Node000004" class="edge">
<title>Node1&#45;&gt;Node4</title>
<g id="a_edge3_Node000001_Node000004"><a xlink:title=" ">
<path fill="none" stroke="#63b8ff" d="M73.1,-46.5C86.51,-46.5 101.81,-46.5 115.4,-46.5"/>
<polygon fill="#63b8ff" stroke="#63b8ff" points="115.4,-50 125.4,-46.5 115.4,-43 115.4,-50"/>
</a>
</g>
</g>
<!-- Node5 -->
<g id="Node000005" class="node">
<title>Node5</title>
<g id="a_Node000005"><a xlink:href="esp1__rfid__motion_8ino.html#ac37295ff76a33dc6395fbeb6906267fd" target="_top" xlink:title="Converts an RFID UID to a hexadecimal string.">
<polygon fill="white" stroke="#666666" points="199,-19 109,-19 109,0 199,0 199,-19"/>
<text text-anchor="middle" x="154" y="-7" font-family="Helvetica,sans-Serif" font-size="10.00">uidToHexString</text>
</a>
</g>
</g>
<!-- Node1&#45;&gt;Node5 -->
<g id="edge4_Node000001_Node000005" class="edge">
<title>Node1&#45;&gt;Node5</title>
<g id="a_edge4_Node000001_Node000005"><a xlink:title=" ">
<path fill="none" stroke="#63b8ff" d="M67.24,-36.97C81.28,-32.48 98.23,-27.05 113.34,-22.2"/>
<polygon fill="#63b8ff" stroke="#63b8ff" points="114.5,-25.51 122.96,-19.12 112.36,-18.84 114.5,-25.51"/>
</a>
</g>
</g>
<!-- Node3 -->
<g id="Node000003" class="node">
<title>Node3</title>
<g id="a_Node000003"><a xlink:href="esp1__rfid__motion_8ino.html#ab09e66ce429f1e2dd70e188a52754e2b" target="_top" xlink:title="I2C LCD instance.">
<polygon fill="white" stroke="#666666" points="266,-93 235,-93 235,-74 266,-74 266,-93"/>
<text text-anchor="middle" x="250.5" y="-81" font-family="Helvetica,sans-Serif" font-size="10.00">lcd</text>
</a>
</g>
</g>
<!-- Node2&#45;&gt;Node3 -->
<g id="edge2_Node000002_Node000003" class="edge">
<title>Node2&#45;&gt;Node3</title>
<g id="a_edge2_Node000002_Node000003"><a xlink:title=" ">
<path fill="none" stroke="#63b8ff" d="M191.27,-83.5C202.43,-83.5 214.45,-83.5 224.66,-83.5"/>
<polygon fill="#63b8ff" stroke="#63b8ff" points="224.9,-87 234.9,-83.5 224.9,-80 224.9,-87"/>
</a>
</g>
</g>
</g>
</svg>
