<?xml version="1.0" encoding="UTF-8" standalone="no"?>
<!DOCTYPE svg PUBLIC "-//W3C//DTD SVG 1.1//EN"
 "http://www.w3.org/Graphics/SVG/1.1/DTD/svg11.dtd">
<!-- Generated by graphviz version 2.43.0 (0)
 -->
<!-- Title: lcdPrintLine Pages: 1 -->
<svg width="271pt" height="140pt"
 viewBox="0.00 0.00 271.00 140.00" xmlns="http://www.w3.org/2000/svg" xmlns:xlink="http://www.w3.org/1999/xlink">
<g id="graph0" class="graph" transform="scale(1 1) rotate(0) translate(4 136)">
<title>lcdPrintLine</title>
<!-- Node1 -->
<g id="Node000001" class="node">
<title>Node1</title>
<g id="a_Node000001"><a xlink:title="Clears an LCD line and prints a flash&#45;resident string.">
<polygon fill="#999999" stroke="#666666" points="263,-75 189,-75 189,-56 263,-56 263,-75"/>
<text text-anchor="middle" x="226" y="-63" font-family="Helvetica,sans-Serif" font-size="10.00">lcdPrintLine</text>
</a>
</g>
</g>
<!-- Node2 -->
<g id="Node000002" class="node">
<title>Node2</title>
<g id="a_Node000002"><a xlink:href="esp1__rfid__motion_8ino.html#ac3a129f66dc859e2b7279565f4e1de78" target="_top" xlink:title="MQTT message callback handler.">
<polygon fill="white" stroke="#666666" points="145,-132 88,-132 88,-113 145,-113 145,-132"/>
<text text-anchor="middle" x="116.5" y="-120" font-family="Helvetica,sans-Serif" font-size="10.00">callback</text>
</a>
</g>
</g>
<!-- Node1&#45;&gt;Node2 -->
<g id="edge1_Node000001_Node000002" class="edge">
<title>Node1&#45;&gt;Node2</title>
<g id="a_edge1_Node000001_Node000002"><a xlink:title=" ">
<path fill="none" stroke="#63b8ff" d="M197.74,-79.95C178.22,-90.31 152.47,-103.96 135.47,-112.97"/>
<polygon fill="#63b8ff" stroke="#63b8ff" points="199.57,-82.95 206.76,-75.17 196.29,-76.76 199.57,-82.95"/>
</a>
</g>
</g>
<!-- Node3 -->
<g id="Node000003" class="node">
<title>Node3</title>
<g id="a_Node000003"><a xlink:href="esp1__rfid__motion_8ino.html#a4fc01d736fe50cf5b977f755b675f11d" target="_top" xlink:title="Arduino setup function.">
<polygon fill="white" stroke="#666666" points="44,-113 0,-113 0,-94 44,-94 44,-113"/>
<text text-anchor="middle" x="22" y="-101" font-family="Helvetica,sans-Serif" font-size="10.00">setup</text>
</a>
</g>
</g>
<!-- Node1&#45;&gt;Node3 -->
<g id="edge7_Node000001_Node000003" class="edge">
<title>Node1&#45;&gt;Node3</title>
<g id="a_edge7_Node000001_Node000003"><a xlink:title=" ">
<path fill="none" stroke="#63b8ff" d="M178.84,-74.18C136.59,-82.13 75.98,-93.53 44.23,-99.51"/>
<polygon fill="#63b8ff" stroke="#63b8ff" points="179.71,-77.58 188.89,-72.29 178.41,-70.7 179.71,-77.58"/>
</a>
</g>
</g>
<!-- Node4 -->
<g id="Node000004" class="node">
<title>Node4</title>
<g id="a_Node000004"><a xlink:href="esp1__rfid__motion_8ino.html#aff8c04e7b324ff4272911924db174640" target="_top" xlink:title="Forces the system back into locked idle state.">
<polygon fill="white" stroke="#666666" points="148.5,-56 84.5,-56 84.5,-37 148.5,-37 148.5,-56"/>
<text text-anchor="middle" x="116.5" y="-44" font-family="Helvetica,sans-Serif" font-size="10.00">forceLock</text>
</a>
</g>
</g>
<!-- Node1&#45;&gt;Node4 -->
<g id="edge3_Node000001_Node000004" class="edge">
<title>Node1&#45;&gt;Node4</title>
<g id="a_edge3_Node000001_Node000004"><a xlink:title=" ">
<path fill="none" stroke="#63b8ff" d="M178.88,-57.35C168.67,-55.54 158.09,-53.67 148.64,-52"/>
<polygon fill="#63b8ff" stroke="#63b8ff" points="178.45,-60.83 188.91,-59.12 179.67,-53.93 178.45,-60.83"/>
</a>
</g>
</g>
<!-- Node6 -->
<g id="Node000006" class="node">
<title>Node6</title>
<g id="a_Node000006"><a xlink:href="esp1__rfid__motion_8ino.html#aee754d5a9a7adc964e2458c556d31728" target="_top" xlink:title="Handles RFID card detection and request publishing.">
<polygon fill="white" stroke="#666666" points="153,-19 80,-19 80,0 153,0 153,-19"/>
<text text-anchor="middle" x="116.5" y="-7" font-family="Helvetica,sans-Serif" font-size="10.00">handleRFID</text>
</a>
</g>
</g>
<!-- Node1&#45;&gt;Node6 -->
<g id="edge5_Node000001_Node000006" class="edge">
<title>Node1&#45;&gt;Node6</title>
<g id="a_edge5_Node000001_Node000006"><a xlink:title=" ">
<path fill="none" stroke="#63b8ff" d="M197.8,-51.01C184.35,-43.88 167.85,-35.18 153,-27.5 147.72,-24.77 141.98,-21.84 136.69,-19.16"/>
<polygon fill="#63b8ff" stroke="#63b8ff" points="196.52,-54.29 206.99,-55.89 199.8,-48.11 196.52,-54.29"/>
</a>
</g>
</g>
<!-- Node2&#45;&gt;Node3 -->
<g id="edge2_Node000002_Node000003" class="edge">
<title>Node2&#45;&gt;Node3</title>
<g id="a_edge2_Node000002_Node000003"><a xlink:title=" ">
<path fill="none" stroke="#63b8ff" d="M78.09,-114.82C66.5,-112.44 54.15,-109.9 44.08,-107.83"/>
<polygon fill="#63b8ff" stroke="#63b8ff" points="77.5,-118.27 88,-116.85 78.91,-111.41 77.5,-118.27"/>
</a>
</g>
</g>
<!-- Node5 -->
<g id="Node000005" class="node">
<title>Node5</title>
<g id="a_Node000005"><a xlink:href="esp1__rfid__motion_8ino.html#afe461d27b9c48d5921c00d521181f12f" target="_top" xlink:title="Arduino main loop.">
<polygon fill="white" stroke="#666666" points="41,-38 3,-38 3,-19 41,-19 41,-38"/>
<text text-anchor="middle" x="22" y="-26" font-family="Helvetica,sans-Serif" font-size="10.00">loop</text>
</a>
</g>
</g>
<!-- Node4&#45;&gt;Node5 -->
<g id="edge4_Node000004_Node000005" class="edge">
<title>Node4&#45;&gt;Node5</title>
<g id="a_edge4_Node000004_Node000005"><a xlink:title=" ">
<path fill="none" stroke="#63b8ff" d="M74.4,-38.5C62.76,-36.24 50.69,-33.89 41.16,-32.03"/>
<polygon fill="#63b8ff" stroke="#63b8ff" points="73.96,-41.98 84.44,-40.46 75.29,-35.11 73.96,-41.98"/>
</a>
</g>
</g>
<!-- Node6&#45;&gt;Node5 -->
<g id="edge6_Node000006_Node000005" class="edge">
<title>Node6&#45;&gt;Node5</title>
<g id="a_edge6_Node000006_Node000005"><a xlink:title=" ">
<path fill="none" stroke="#63b8ff" d="M69.67,-18.91C59.52,-21 49.35,-23.09 41.1,-24.78"/>
<polygon fill="#63b8ff" stroke="#63b8ff" points="70.65,-22.29 79.74,-16.85 69.24,-15.43 70.65,-22.29"/>
</a>
</g>
</g>
</g>
</svg>
