<?xml version="1.0" encoding="UTF-8" standalone="no"?>
<!DOCTYPE svg PUBLIC "-//W3C//DTD SVG 1.1//EN"
 "http://www.w3.org/Graphics/SVG/1.1/DTD/svg11.dtd">
<!-- Generated by graphviz version 2.43.0 (0)
 -->
<!-- Title: loop Pages: 1 -->
<svg width="463pt" height="194pt"
 viewBox="0.00 0.00 463.00 194.00" xmlns="http://www.w3.org/2000/svg" xmlns:xlink="http://www.w3.org/1999/xlink">

<svg id="main" version="1.1" xmlns="http://www.w3.org/2000/svg" xmlns:xlink="http://www.w3.org/1999/xlink" xml:space="preserve">

<style type="text/css"><![CDATA[
.node, .edge {opacity: 0.7;}
.node.selected, .edge.selected {opacity: 1;}
.edge:hover path { stroke: red; }
.edge:hover polygon { stroke: red; fill: red; }
]]></style>
<script type="application/ecmascript" xlink:href="svg.min.js"/>
<svg id="graph" class="graph">
<g id="graph0" class="graph" transform="scale(1 1) rotate(0) translate(4 190)">
<title>loop</title>
<!-- Node1 -->
<g id="Node000001" class="node">
<title>Node1</title>
<g id="a_Node000001"><a xlink:title="Arduino main loop.">
<polygon fill="#999999" stroke="#666666" points="38,-93 0,-93 0,-74 38,-74 38,-93"/>
<text text-anchor="middle" x="19" y="-81" font-family="Helvetica,sans-Serif" font-size="10.00">loop</text>
</a>
</g>
</g>
<!-- Node2 -->
<g id="Node000002" class="node">
<title>Node2</title>
<g id="a_Node000002"><a xlink:href="esp1__rfid__motion_8ino.html#aff8c04e7b324ff4272911924db174640" target="_top" xlink:title="Forces the system back into locked idle state.">
<polygon fill="white" stroke="#666666" points="161,-176 97,-176 97,-157 161,-157 161,-176"/>
<text text-anchor="middle" x="129" y="-164" font-family="Helvetica,sans-Serif" font-size="10.00">forceLock</text>
</a>
</g>
</g>
<!-- Node1&#45;&gt;Node2 -->
<g id="edge1_Node000001_Node000002" class="edge">
<title>Node1&#45;&gt;Node2</title>
<g id="a_edge1_Node000001_Node000002"><a xlink:title=" ">
<path fill="none" stroke="#63b8ff" d="M30.42,-93.28C41.05,-103.09 58.19,-118.43 74,-130.5 83.5,-137.75 94.4,-145.18 103.91,-151.39"/>
<polygon fill="#63b8ff" stroke="#63b8ff" points="102.21,-154.45 112.51,-156.92 105.99,-148.57 102.21,-154.45"/>
</a>
</g>
</g>
<!-- Node5 -->
<g id="Node000005" class="node">
<title>Node5</title>
<g id="a_Node000005"><a xlink:href="esp1__rfid__motion_8ino.html#aee754d5a9a7adc964e2458c556d31728" target="_top" xlink:title="Handles RFID card detection and request publishing.">
<polygon fill="white" stroke="#666666" points="165.5,-121 92.5,-121 92.5,-102 165.5,-102 165.5,-121"/>
<text text-anchor="middle" x="129" y="-109" font-family="Helvetica,sans-Serif" font-size="10.00">handleRFID</text>
</a>
</g>
</g>
<!-- Node1&#45;&gt;Node5 -->
<g id="edge4_Node000001_Node000005" class="edge">
<title>Node1&#45;&gt;Node5</title>
<g id="a_edge4_Node000001_Node000005"><a xlink:title=" ">
<path fill="none" stroke="#63b8ff" d="M38.32,-88.25C50.37,-91.37 66.7,-95.61 82.13,-99.61"/>
<polygon fill="#63b8ff" stroke="#63b8ff" points="81.52,-103.07 92.08,-102.19 83.28,-96.29 81.52,-103.07"/>
</a>
</g>
</g>
<!-- Node8 -->
<g id="Node000008" class="node">
<title>Node8</title>
<g id="a_Node000008"><a xlink:href="esp1__rfid__motion_8ino.html#afd31f405375298b91360c711cad4200f" target="_top" xlink:title="Checks whether the LCD backlight should remain active.">
<polygon fill="white" stroke="#666666" points="455,-19 363,-19 363,0 455,0 455,-19"/>
<text text-anchor="middle" x="409" y="-7" font-family="Helvetica,sans-Serif" font-size="10.00">isDisplayActive</text>
</a>
</g>
</g>
<!-- Node1&#45;&gt;Node8 -->
<g id="edge8_Node000001_Node000008" class="edge">
<title>Node1&#45;&gt;Node8</title>
<g id="a_edge8_Node000001_Node000008"><a xlink:title=" ">
<path fill="none" stroke="#63b8ff" d="M31.29,-73.99C41.75,-65.63 58.05,-53.71 74,-46.5 135,-18.93 153.57,-17.79 220,-9.5 264.41,-3.96 315.17,-4.35 352.75,-5.92"/>
<polygon fill="#63b8ff" stroke="#63b8ff" points="352.83,-9.42 362.98,-6.38 353.15,-2.43 352.83,-9.42"/>
</a>
</g>
</g>
<!-- Node9 -->
<g id="Node000009" class="node">
<title>Node9</title>
<g id="a_Node000009"><a xlink:href="esp1__rfid__motion_8ino.html#a8df5568d50795a11cfd7fb0abb331131" target="_top" xlink:title="Updates motion state based on PIR sensor input.">
<polygon fill="white" stroke="#666666" points="184,-75 74,-75 74,-56 184,-56 184,-75"/>
<text text-anchor="middle" x="129" y="-63" font-family="Helvetica,sans-Serif" font-size="10.00">updateMotionState</text>
</a>
</g>
</g>
<!-- Node1&#45;&gt;Node9 -->
<g id="edge9_Node000001_Node000009" class="edge">
<title>Node1&#45;&gt;Node9</title>
<g id="a_edge9_Node000001_Node000009"><a xlink:title=" ">
<path fill="none" stroke="#63b8ff" d="M38.32,-80.45C45.57,-79.24 54.37,-77.77 63.59,-76.23"/>
<polygon fill="#63b8ff" stroke="#63b8ff" points="64.42,-79.65 73.71,-74.55 63.27,-72.74 64.42,-79.65"/>
</a>
</g>
</g>
<!-- Node3 -->
<g id="Node000003" class="node">
<title>Node3</title>
<g id="a_Node000003"><a xlink:href="esp1__rfid__motion_8ino.html#a1eec526201dccd228883774259151450" target="_top" xlink:title="Clears an LCD line and prints a flash&#45;resident string.">
<polygon fill="white" stroke="#666666" points="310.5,-186 236.5,-186 236.5,-167 310.5,-167 310.5,-186"/>
<text text-anchor="middle" x="273.5" y="-174" font-family="Helvetica,sans-Serif" font-size="10.00">lcdPrintLine</text>
</a>
</g>
</g>
<!-- Node2&#45;&gt;Node3 -->
<g id="edge2_Node000002_Node000003" class="edge">
<title>Node2&#45;&gt;Node3</title>
<g id="a_edge2_Node000002_Node000003"><a xlink:title=" ">
<path fill="none" stroke="#63b8ff" d="M161.27,-168.69C180.28,-170.03 204.91,-171.76 226.15,-173.25"/>
<polygon fill="#63b8ff" stroke="#63b8ff" points="226.05,-176.75 236.27,-173.96 226.54,-169.77 226.05,-176.75"/>
</a>
</g>
</g>
<!-- Node4 -->
<g id="Node000004" class="node">
<title>Node4</title>
<g id="a_Node000004"><a xlink:href="esp1__rfid__motion_8ino.html#ab09e66ce429f1e2dd70e188a52754e2b" target="_top" xlink:title="I2C LCD instance.">
<polygon fill="white" stroke="#666666" points="424.5,-75 393.5,-75 393.5,-56 424.5,-56 424.5,-75"/>
<text text-anchor="middle" x="409" y="-63" font-family="Helvetica,sans-Serif" font-size="10.00">lcd</text>
</a>
</g>
</g>
<!-- Node3&#45;&gt;Node4 -->
<g id="edge3_Node000003_Node000004" class="edge">
<title>Node3&#45;&gt;Node4</title>
<g id="a_edge3_Node000003_Node000004"><a xlink:title=" ">
<path fill="none" stroke="#63b8ff" d="M310.71,-166.9C316.41,-164.61 322.04,-161.83 327,-158.5 356.89,-138.39 382.47,-104.55 396.5,-83.71"/>
<polygon fill="#63b8ff" stroke="#63b8ff" points="399.56,-85.43 402.11,-75.14 393.71,-81.59 399.56,-85.43"/>
</a>
</g>
</g>
<!-- Node5&#45;&gt;Node3 -->
<g id="edge5_Node000005_Node000003" class="edge">
<title>Node5&#45;&gt;Node3</title>
<g id="a_edge5_Node000005_Node000003"><a xlink:title=" ">
<path fill="none" stroke="#63b8ff" d="M146.55,-121.11C164.33,-131.21 193.6,-147.16 220,-158.5 224.09,-160.26 228.42,-161.97 232.77,-163.59"/>
<polygon fill="#63b8ff" stroke="#63b8ff" points="231.62,-166.9 242.22,-166.99 233.99,-160.31 231.62,-166.9"/>
</a>
</g>
</g>
<!-- Node6 -->
<g id="Node000006" class="node">
<title>Node6</title>
<g id="a_Node000006"><a xlink:href="esp1__rfid__motion_8ino.html#a2251823e12f034625cf955d83d4ec6b6" target="_top" xlink:title="MFRC522 RFID reader instance.">
<polygon fill="white" stroke="#666666" points="302,-149 245,-149 245,-130 302,-130 302,-149"/>
<text text-anchor="middle" x="273.5" y="-137" font-family="Helvetica,sans-Serif" font-size="10.00">mfrc522</text>
</a>
</g>
</g>
<!-- Node5&#45;&gt;Node6 -->
<g id="edge6_Node000005_Node000006" class="edge">
<title>Node5&#45;&gt;Node6</title>
<g id="a_edge6_Node000005_Node000006"><a xlink:title=" ">
<path fill="none" stroke="#63b8ff" d="M165.59,-118.49C186.7,-122.64 213.44,-127.9 234.9,-132.11"/>
<polygon fill="#63b8ff" stroke="#63b8ff" points="234.47,-135.59 244.96,-134.09 235.82,-128.73 234.47,-135.59"/>
</a>
</g>
</g>
<!-- Node7 -->
<g id="Node000007" class="node">
<title>Node7</title>
<g id="a_Node000007"><a xlink:href="esp1__rfid__motion_8ino.html#ac37295ff76a33dc6395fbeb6906267fd" target="_top" xlink:title="Converts an RFID UID to a hexadecimal string.">
<polygon fill="white" stroke="#666666" points="318.5,-112 228.5,-112 228.5,-93 318.5,-93 318.5,-112"/>
<text text-anchor="middle" x="273.5" y="-100" font-family="Helvetica,sans-Serif" font-size="10.00">uidToHexString</text>
</a>
</g>
</g>
<!-- Node5&#45;&gt;Node7 -->
<g id="edge7_Node000005_Node000007" class="edge">
<title>Node5&#45;&gt;Node7</title>
<g id="a_edge7_Node000005_Node000007"><a xlink:title=" ">
<path fill="none" stroke="#63b8ff" d="M165.59,-109.25C181.51,-108.25 200.63,-107.04 218.27,-105.93"/>
<polygon fill="#63b8ff" stroke="#63b8ff" points="218.69,-109.41 228.45,-105.28 218.25,-102.42 218.69,-109.41"/>
</a>
</g>
</g>
<!-- Node10 -->
<g id="Node000010" class="node">
<title>Node10</title>
<g id="a_Node000010"><a xlink:href="esp1__rfid__motion_8ino.html#ade59c900943c3305d0209fb836346d95" target="_top" xlink:title="Handles motion&#45;detected events.">
<polygon fill="white" stroke="#666666" points="327,-75 220,-75 220,-56 327,-56 327,-75"/>
<text text-anchor="middle" x="273.5" y="-63" font-family="Helvetica,sans-Serif" font-size="10.00">onMotionDetected</text>
</a>
</g>
</g>
<!-- Node9&#45;&gt;Node10 -->
<g id="edge10_Node000009_Node000010" class="edge">
<title>Node9&#45;&gt;Node10</title>
<g id="a_edge10_Node000009_Node000010"><a xlink:title=" ">
<path fill="none" stroke="#63b8ff" d="M184.28,-65.5C192.56,-65.5 201.16,-65.5 209.6,-65.5"/>
<polygon fill="#63b8ff" stroke="#63b8ff" points="209.78,-69 219.78,-65.5 209.78,-62 209.78,-69"/>
</a>
</g>
</g>
<!-- Node11 -->
<g id="Node000011" class="node">
<title>Node11</title>
<g id="a_Node000011"><a xlink:href="esp1__rfid__motion_8ino.html#acafc4192a261b10303c3d691ac3f3340" target="_top" xlink:title="Handles motion&#45;idle state.">
<polygon fill="white" stroke="#666666" points="313.5,-38 233.5,-38 233.5,-19 313.5,-19 313.5,-38"/>
<text text-anchor="middle" x="273.5" y="-26" font-family="Helvetica,sans-Serif" font-size="10.00">onMotionIdle</text>
</a>
</g>
</g>
<!-- Node9&#45;&gt;Node11 -->
<g id="edge12_Node000009_Node000011" class="edge">
<title>Node9&#45;&gt;Node11</title>
<g id="a_edge12_Node000009_Node000011"><a xlink:title=" ">
<path fill="none" stroke="#63b8ff" d="M166.7,-55.97C184.67,-51.3 206.52,-45.63 225.69,-40.65"/>
<polygon fill="#63b8ff" stroke="#63b8ff" points="226.63,-44.03 235.43,-38.12 224.87,-37.25 226.63,-44.03"/>
</a>
</g>
</g>
<!-- Node10&#45;&gt;Node4 -->
<g id="edge11_Node000010_Node000004" class="edge">
<title>Node10&#45;&gt;Node4</title>
<g id="a_edge11_Node000010_Node000004"><a xlink:title=" ">
<path fill="none" stroke="#63b8ff" d="M327.26,-65.5C346.5,-65.5 367.36,-65.5 383.05,-65.5"/>
<polygon fill="#63b8ff" stroke="#63b8ff" points="383.47,-69 393.47,-65.5 383.47,-62 383.47,-69"/>
</a>
</g>
</g>
<!-- Node11&#45;&gt;Node4 -->
<g id="edge14_Node000011_Node000004" class="edge">
<title>Node11&#45;&gt;Node4</title>
<g id="a_edge14_Node000011_Node000004"><a xlink:title=" ">
<path fill="none" stroke="#63b8ff" d="M308.88,-38.03C332.28,-44.51 362.67,-52.94 383.6,-58.74"/>
<polygon fill="#63b8ff" stroke="#63b8ff" points="382.75,-62.13 393.32,-61.43 384.62,-55.39 382.75,-62.13"/>
</a>
</g>
</g>
<!-- Node11&#45;&gt;Node8 -->
<g id="edge13_Node000011_Node000008" class="edge">
<title>Node11&#45;&gt;Node8</title>
<g id="a_edge13_Node000011_Node000008"><a xlink:title=" ">
<path fill="none" stroke="#63b8ff" d="M313.83,-22.9C325.97,-21.17 339.57,-19.24 352.58,-17.39"/>
<polygon fill="#63b8ff" stroke="#63b8ff" points="353.44,-20.8 362.85,-15.93 352.46,-13.87 353.44,-20.8"/>
</a>
</g>
</g>
</g>
</svg>
</svg>

<style type='text/css'>
<![CDATA[
[data-mouse-over-selected='false'] { opacity: 0.7; }
[data-mouse-over-selected='true']  { opacity: 1.0; }
]]>
</style>
<script type="application/ecmascript"><![CDATA[
document.addEventListener('DOMContentLoaded', (event) => {
  highlightEdges();
  highlightAdjacentNodes();
});
]]></script>
</svg>
