<?xml version="1.0" encoding="UTF-8" standalone="no"?>
<!DOCTYPE svg PUBLIC "-//W3C//DTD SVG 1.1//EN"
 "http://www.w3.org/Graphics/SVG/1.1/DTD/svg11.dtd">
<!-- Generated by graphviz version 2.43.0 (0)
 -->
<!-- Title: makeEnteredPins Pages: 1 -->
<svg width="282pt" height="27pt"
 viewBox="0.00 0.00 282.00 27.00" xmlns="http://www.w3.org/2000/svg" xmlns:xlink="http://www.w3.org/1999/xlink">
<g id="graph0" class="graph" transform="scale(1 1) rotate(0) translate(4 23)">
<title>makeEnteredPins</title>
<!-- Node1 -->
<g id="Node000001" class="node">
<title>Node1</title>
<g id="a_Node000001"><a xlink:title="Builds a masked PIN string for LCD display.">
<polygon fill="#999999" stroke="#666666" points="274,-19 173,-19 173,0 274,0 274,-19"/>
<text text-anchor="middle" x="223.5" y="-7" font-family="Helvetica,sans-Serif" font-size="10.00">makeEnteredPins</text>
</a>
</g>
</g>
<!-- Node2 -->
<g id="Node000002" class="node">
<title>Node2</title>
<g id="a_Node000002"><a xlink:href="esp1__rfid__motion_8ino.html#ac3a129f66dc859e2b7279565f4e1de78" target="_top" xlink:title="MQTT message callback handler.">
<polygon fill="white" stroke="#666666" points="137,-19 80,-19 80,0 137,0 137,-19"/>
<text text-anchor="middle" x="108.5" y="-7" font-family="Helvetica,sans-Serif" font-size="10.00">callback</text>
</a>
</g>
</g>
<!-- Node1&#45;&gt;Node2 -->
<g id="edge1_Node000001_Node000002" class="edge">
<title>Node1&#45;&gt;Node2</title>
<g id="a_edge1_Node000001_Node000002"><a xlink:title=" ">
<path fill="none" stroke="#63b8ff" d="M162.86,-9.5C153.94,-9.5 145.12,-9.5 137.3,-9.5"/>
<polygon fill="#63b8ff" stroke="#63b8ff" points="162.94,-13 172.94,-9.5 162.94,-6 162.94,-13"/>
</a>
</g>
</g>
<!-- Node3 -->
<g id="Node000003" class="node">
<title>Node3</title>
<g id="a_Node000003"><a xlink:href="esp1__rfid__motion_8ino.html#a4fc01d736fe50cf5b977f755b675f11d" target="_top" xlink:title="Arduino setup function.">
<polygon fill="white" stroke="#666666" points="44,-19 0,-19 0,0 44,0 44,-19"/>
<text text-anchor="middle" x="22" y="-7" font-family="Helvetica,sans-Serif" font-size="10.00">setup</text>
</a>
</g>
</g>
<!-- Node2&#45;&gt;Node3 -->
<g id="edge2_Node000002_Node000003" class="edge">
<title>Node2&#45;&gt;Node3</title>
<g id="a_edge2_Node000002_Node000003"><a xlink:title=" ">
<path fill="none" stroke="#63b8ff" d="M69.7,-9.5C60.88,-9.5 51.81,-9.5 44.03,-9.5"/>
<polygon fill="#63b8ff" stroke="#63b8ff" points="69.83,-13 79.83,-9.5 69.83,-6 69.83,-13"/>
</a>
</g>
</g>
</g>
</svg>
