<?xml version="1.0" encoding="UTF-8" standalone="no"?>
<!DOCTYPE svg PUBLIC "-//W3C//DTD SVG 1.1//EN"
 "http://www.w3.org/Graphics/SVG/1.1/DTD/svg11.dtd">
<!-- Generated by graphviz version 2.43.0 (0)
 -->
<!-- Title: lcd Pages: 1 -->
<svg width="408pt" height="213pt"
 viewBox="0.00 0.00 408.00 213.27" xmlns="http://www.w3.org/2000/svg" xmlns:xlink="http://www.w3.org/1999/xlink">
<g id="graph0" class="graph" transform="scale(1 1) rotate(0) translate(4 209.27)">
<title>lcd</title>
<!-- Node1 -->
<g id="Node000001" class="node">
<title>Node1</title>
<g id="a_Node000001"><a xlink:title="I2C LCD instance.">
<polygon fill="#999999" stroke="#666666" points="400,-93 369,-93 369,-74 400,-74 400,-93"/>
<text text-anchor="middle" x="384.5" y="-81" font-family="Helvetica,sans-Serif" font-size="10.00">lcd</text>
</a>
</g>
</g>
<!-- Node2 -->
<g id="Node000002" class="node">
<title>Node2</title>
<g id="a_Node000002"><a xlink:href="esp1__rfid__motion_8ino.html#a1eec526201dccd228883774259151450" target="_top" xlink:title="Clears an LCD line and prints a flash&#45;resident string.">
<polygon fill="white" stroke="#666666" points="316.5,-130 242.5,-130 242.5,-111 316.5,-111 316.5,-130"/>
<text text-anchor="middle" x="279.5" y="-118" font-family="Helvetica,sans-Serif" font-size="10.00">lcdPrintLine</text>
</a>
</g>
</g>
<!-- Node1&#45;&gt;Node2 -->
<g id="edge1_Node000001_Node000002" class="edge">
<title>Node1&#45;&gt;Node2</title>
<g id="a_edge1_Node000001_Node000002"><a xlink:title=" ">
<path fill="none" stroke="#63b8ff" d="M359.44,-92.72C351.09,-95.87 341.65,-99.39 333,-102.5 325.2,-105.3 316.72,-108.25 308.89,-110.94"/>
<polygon fill="#63b8ff" stroke="#63b8ff" points="360.85,-95.93 368.96,-89.1 358.37,-89.38 360.85,-95.93"/>
</a>
</g>
</g>
<!-- Node4 -->
<g id="Node000004" class="node">
<title>Node4</title>
<g id="a_Node000004"><a xlink:href="esp1__rfid__motion_8ino.html#a4fc01d736fe50cf5b977f755b675f11d" target="_top" xlink:title="Arduino setup function.">
<polygon fill="white" stroke="#666666" points="44,-205 0,-205 0,-186 44,-186 44,-205"/>
<text text-anchor="middle" x="22" y="-193" font-family="Helvetica,sans-Serif" font-size="10.00">setup</text>
</a>
</g>
</g>
<!-- Node1&#45;&gt;Node4 -->
<g id="edge15_Node000001_Node000004" class="edge">
<title>Node1&#45;&gt;Node4</title>
<g id="a_edge15_Node000001_Node000004"><a xlink:title=" ">
<path fill="none" stroke="#63b8ff" d="M370.68,-101.46C361.34,-113.5 347.78,-129.01 333,-139.5 276.79,-179.39 257.57,-185.9 190,-199.5 138.4,-209.89 76.02,-203.53 44.09,-198.96"/>
<polygon fill="#63b8ff" stroke="#63b8ff" points="373.5,-103.53 376.69,-93.42 367.89,-99.33 373.5,-103.53"/>
</a>
</g>
</g>
<!-- Node8 -->
<g id="Node000008" class="node">
<title>Node8</title>
<g id="a_Node000008"><a xlink:href="esp1__rfid__motion_8ino.html#a79a958a99f2c3f644266594c7df27b97" target="_top" xlink:title="Clears an LCD line and prints a RAM&#45;resident string.">
<polygon fill="white" stroke="#666666" points="316.5,-19 242.5,-19 242.5,0 316.5,0 316.5,-19"/>
<text text-anchor="middle" x="279.5" y="-7" font-family="Helvetica,sans-Serif" font-size="10.00">lcdPrintLine</text>
</a>
</g>
</g>
<!-- Node1&#45;&gt;Node8 -->
<g id="edge9_Node000001_Node000008" class="edge">
<title>Node1&#45;&gt;Node8</title>
<g id="a_edge9_Node000001_Node000008"><a xlink:title=" ">
<path fill="none" stroke="#63b8ff" d="M371.21,-65.65C361.97,-53.4 348.3,-37.6 333,-27.5 327.93,-24.15 322.18,-21.37 316.39,-19.06"/>
<polygon fill="#63b8ff" stroke="#63b8ff" points="368.42,-67.77 377.13,-73.81 374.09,-63.66 368.42,-67.77"/>
</a>
</g>
</g>
<!-- Node9 -->
<g id="Node000009" class="node">
<title>Node9</title>
<g id="a_Node000009"><a xlink:href="esp1__rfid__motion_8ino.html#ade59c900943c3305d0209fb836346d95" target="_top" xlink:title="Handles motion&#45;detected events.">
<polygon fill="white" stroke="#666666" points="333,-93 226,-93 226,-74 333,-74 333,-93"/>
<text text-anchor="middle" x="279.5" y="-81" font-family="Helvetica,sans-Serif" font-size="10.00">onMotionDetected</text>
</a>
</g>
</g>
<!-- Node1&#45;&gt;Node9 -->
<g id="edge10_Node000001_Node000009" class="edge">
<title>Node1&#45;&gt;Node9</title>
<g id="a_edge10_Node000001_Node000009"><a xlink:title=" ">
<path fill="none" stroke="#63b8ff" d="M358.7,-83.5C351.01,-83.5 342.21,-83.5 333.36,-83.5"/>
<polygon fill="#63b8ff" stroke="#63b8ff" points="358.74,-87 368.74,-83.5 358.74,-80 358.74,-87"/>
</a>
</g>
</g>
<!-- Node11 -->
<g id="Node000011" class="node">
<title>Node11</title>
<g id="a_Node000011"><a xlink:href="esp1__rfid__motion_8ino.html#acafc4192a261b10303c3d691ac3f3340" target="_top" xlink:title="Handles motion&#45;idle state.">
<polygon fill="white" stroke="#666666" points="319.5,-56 239.5,-56 239.5,-37 319.5,-37 319.5,-56"/>
<text text-anchor="middle" x="279.5" y="-44" font-family="Helvetica,sans-Serif" font-size="10.00">onMotionIdle</text>
</a>
</g>
</g>
<!-- Node1&#45;&gt;Node11 -->
<g id="edge13_Node000001_Node000011" class="edge">
<title>Node1&#45;&gt;Node11</title>
<g id="a_edge13_Node000001_Node000011"><a xlink:title=" ">
<path fill="none" stroke="#63b8ff" d="M359.44,-74.28C351.09,-71.13 341.65,-67.61 333,-64.5 325.2,-61.7 316.72,-58.75 308.89,-56.06"/>
<polygon fill="#63b8ff" stroke="#63b8ff" points="358.37,-77.62 368.96,-77.9 360.85,-71.07 358.37,-77.62"/>
</a>
</g>
</g>
<!-- Node3 -->
<g id="Node000003" class="node">
<title>Node3</title>
<g id="a_Node000003"><a xlink:href="esp1__rfid__motion_8ino.html#ac3a129f66dc859e2b7279565f4e1de78" target="_top" xlink:title="MQTT message callback handler.">
<polygon fill="white" stroke="#666666" points="163.5,-167 106.5,-167 106.5,-148 163.5,-148 163.5,-167"/>
<text text-anchor="middle" x="135" y="-155" font-family="Helvetica,sans-Serif" font-size="10.00">callback</text>
</a>
</g>
</g>
<!-- Node2&#45;&gt;Node3 -->
<g id="edge2_Node000002_Node000003" class="edge">
<title>Node2&#45;&gt;Node3</title>
<g id="a_edge2_Node000002_Node000003"><a xlink:title=" ">
<path fill="none" stroke="#63b8ff" d="M232.41,-132.47C209.75,-138.35 183.21,-145.24 163.71,-150.3"/>
<polygon fill="#63b8ff" stroke="#63b8ff" points="233.37,-135.83 242.17,-129.93 231.61,-129.06 233.37,-135.83"/>
</a>
</g>
</g>
<!-- Node2&#45;&gt;Node4 -->
<g id="edge8_Node000002_Node000004" class="edge">
<title>Node2&#45;&gt;Node4</title>
<g id="a_edge8_Node000002_Node000004"><a xlink:title=" ">
<path fill="none" stroke="#63b8ff" d="M259.02,-136.5C241.94,-149.6 215.85,-167.39 190,-176.5 139.91,-194.15 76.63,-196.31 44.24,-196.08"/>
<polygon fill="#63b8ff" stroke="#63b8ff" points="261.4,-139.09 267.09,-130.15 257.07,-133.59 261.4,-139.09"/>
</a>
</g>
</g>
<!-- Node5 -->
<g id="Node000005" class="node">
<title>Node5</title>
<g id="a_Node000005"><a xlink:href="esp1__rfid__motion_8ino.html#aff8c04e7b324ff4272911924db174640" target="_top" xlink:title="Forces the system back into locked idle state.">
<polygon fill="white" stroke="#666666" points="167,-130 103,-130 103,-111 167,-111 167,-130"/>
<text text-anchor="middle" x="135" y="-118" font-family="Helvetica,sans-Serif" font-size="10.00">forceLock</text>
</a>
</g>
</g>
<!-- Node2&#45;&gt;Node5 -->
<g id="edge4_Node000002_Node000005" class="edge">
<title>Node2&#45;&gt;Node5</title>
<g id="a_edge4_Node000002_Node000005"><a xlink:title=" ">
<path fill="none" stroke="#63b8ff" d="M232.09,-120.5C210.91,-120.5 186.39,-120.5 167.42,-120.5"/>
<polygon fill="#63b8ff" stroke="#63b8ff" points="232.17,-124 242.17,-120.5 232.17,-117 232.17,-124"/>
</a>
</g>
</g>
<!-- Node7 -->
<g id="Node000007" class="node">
<title>Node7</title>
<g id="a_Node000007"><a xlink:href="esp1__rfid__motion_8ino.html#aee754d5a9a7adc964e2458c556d31728" target="_top" xlink:title="Handles RFID card detection and request publishing.">
<polygon fill="white" stroke="#666666" points="171.5,-93 98.5,-93 98.5,-74 171.5,-74 171.5,-93"/>
<text text-anchor="middle" x="135" y="-81" font-family="Helvetica,sans-Serif" font-size="10.00">handleRFID</text>
</a>
</g>
</g>
<!-- Node2&#45;&gt;Node7 -->
<g id="edge6_Node000002_Node000007" class="edge">
<title>Node2&#45;&gt;Node7</title>
<g id="a_edge6_Node000002_Node000007"><a xlink:title=" ">
<path fill="none" stroke="#63b8ff" d="M232.48,-108.55C212.8,-103.44 190.16,-97.56 171.77,-92.79"/>
<polygon fill="#63b8ff" stroke="#63b8ff" points="231.61,-111.94 242.17,-111.07 233.37,-105.17 231.61,-111.94"/>
</a>
</g>
</g>
<!-- Node3&#45;&gt;Node4 -->
<g id="edge3_Node000003_Node000004" class="edge">
<title>Node3&#45;&gt;Node4</title>
<g id="a_edge3_Node000003_Node000004"><a xlink:title=" ">
<path fill="none" stroke="#63b8ff" d="M96.37,-170.38C78.92,-176.36 58.84,-183.23 44.1,-188.28"/>
<polygon fill="#63b8ff" stroke="#63b8ff" points="97.95,-173.54 106.28,-166.99 95.68,-166.92 97.95,-173.54"/>
</a>
</g>
</g>
<!-- Node6 -->
<g id="Node000006" class="node">
<title>Node6</title>
<g id="a_Node000006"><a xlink:href="esp1__rfid__motion_8ino.html#afe461d27b9c48d5921c00d521181f12f" target="_top" xlink:title="Arduino main loop.">
<polygon fill="white" stroke="#666666" points="41,-93 3,-93 3,-74 41,-74 41,-93"/>
<text text-anchor="middle" x="22" y="-81" font-family="Helvetica,sans-Serif" font-size="10.00">loop</text>
</a>
</g>
</g>
<!-- Node5&#45;&gt;Node6 -->
<g id="edge5_Node000005_Node000006" class="edge">
<title>Node5&#45;&gt;Node6</title>
<g id="a_edge5_Node000005_Node000006"><a xlink:title=" ">
<path fill="none" stroke="#63b8ff" d="M95.75,-107.75C77.21,-101.57 55.83,-94.44 41.06,-89.52"/>
<polygon fill="#63b8ff" stroke="#63b8ff" points="94.82,-111.13 105.41,-110.97 97.03,-104.49 94.82,-111.13"/>
</a>
</g>
</g>
<!-- Node7&#45;&gt;Node6 -->
<g id="edge7_Node000007_Node000006" class="edge">
<title>Node7&#45;&gt;Node6</title>
<g id="a_edge7_Node000007_Node000006"><a xlink:title=" ">
<path fill="none" stroke="#63b8ff" d="M88.2,-83.5C71.71,-83.5 54.03,-83.5 41.25,-83.5"/>
<polygon fill="#63b8ff" stroke="#63b8ff" points="88.27,-87 98.27,-83.5 88.27,-80 88.27,-87"/>
</a>
</g>
</g>
<!-- Node10 -->
<g id="Node000010" class="node">
<title>Node10</title>
<g id="a_Node000010"><a xlink:href="esp1__rfid__motion_8ino.html#a8df5568d50795a11cfd7fb0abb331131" target="_top" xlink:title="Updates motion state based on PIR sensor input.">
<polygon fill="white" stroke="#666666" points="190,-56 80,-56 80,-37 190,-37 190,-56"/>
<text text-anchor="middle" x="135" y="-44" font-family="Helvetica,sans-Serif" font-size="10.00">updateMotionState</text>
</a>
</g>
</g>
<!-- Node9&#45;&gt;Node10 -->
<g id="edge11_Node000009_Node000010" class="edge">
<title>Node9&#45;&gt;Node10</title>
<g id="a_edge11_Node000009_Node000010"><a xlink:title=" ">
<path fill="none" stroke="#63b8ff" d="M232.08,-71.45C212.96,-66.48 191.1,-60.81 173.07,-56.12"/>
<polygon fill="#63b8ff" stroke="#63b8ff" points="231.24,-74.85 241.8,-73.97 233,-68.07 231.24,-74.85"/>
</a>
</g>
</g>
<!-- Node10&#45;&gt;Node6 -->
<g id="edge12_Node000010_Node000006" class="edge">
<title>Node10&#45;&gt;Node6</title>
<g id="a_edge12_Node000010_Node000006"><a xlink:title=" ">
<path fill="none" stroke="#63b8ff" d="M95.75,-59.25C77.21,-65.43 55.83,-72.56 41.06,-77.48"/>
<polygon fill="#63b8ff" stroke="#63b8ff" points="97.03,-62.51 105.41,-56.03 94.82,-55.87 97.03,-62.51"/>
</a>
</g>
</g>
<!-- Node11&#45;&gt;Node10 -->
<g id="edge14_Node000011_Node000010" class="edge">
<title>Node11&#45;&gt;Node10</title>
<g id="a_edge14_Node000011_Node000010"><a xlink:title=" ">
<path fill="none" stroke="#63b8ff" d="M228.93,-46.5C216.39,-46.5 202.87,-46.5 190.12,-46.5"/>
<polygon fill="#63b8ff" stroke="#63b8ff" points="229.18,-50 239.18,-46.5 229.18,-43 229.18,-50"/>
</a>
</g>
</g>
</g>
</svg>
