<?xml version="1.0" encoding="UTF-8" standalone="no"?>
<!DOCTYPE svg PUBLIC "-//W3C//DTD SVG 1.1//EN"
 "http://www.w3.org/Graphics/SVG/1.1/DTD/svg11.dtd">
<!-- Generated by graphviz version 2.43.0 (0)
 -->
<!-- Title: esp1_rfid_motion/esp1_rfid_motion.ino Pages: 1 -->
<svg width="658pt" height="148pt"
 viewBox="0.00 0.00 657.50 148.00" xmlns="http://www.w3.org/2000/svg" xmlns:xlink="http://www.w3.org/1999/xlink">
<g id="graph0" class="graph" transform="scale(1 1) rotate(0) translate(4 144)">
<title>esp1_rfid_motion/esp1_rfid_motion.ino</title>
<!-- Node1 -->
<g id="Node000001" class="node">
<title>Node1</title>
<g id="a_Node000001"><a xlink:title="RFID + PIN based access controller with LCD, motion sensing, and MQTT.">
<polygon fill="#999999" stroke="#666666" points="375,-140 248,-140 248,-110 375,-110 375,-140"/>
<text text-anchor="start" x="256" y="-128" font-family="Helvetica,sans-Serif" font-size="10.00">esp1_rfid_motion/esp1</text>
<text text-anchor="middle" x="311.5" y="-117" font-family="Helvetica,sans-Serif" font-size="10.00">_rfid_motion.ino</text>
</a>
</g>
</g>
<!-- Node2 -->
<g id="Node000002" class="node">
<title>Node2</title>
<g id="a_Node000002"><a xlink:title=" ">
<polygon fill="#e0e0e0" stroke="#999999" points="63,-19 0,-19 0,0 63,0 63,-19"/>
<text text-anchor="middle" x="31.5" y="-7" font-family="Helvetica,sans-Serif" font-size="10.00">Arduino.h</text>
</a>
</g>
</g>
<!-- Node1&#45;&gt;Node2 -->
<g id="edge1_Node000001_Node000002" class="edge">
<title>Node1&#45;&gt;Node2</title>
<g id="a_edge1_Node000001_Node000002"><a xlink:title=" ">
<path fill="none" stroke="#63b8ff" d="M247.94,-114.41C208.46,-106.86 157.43,-94.18 115.5,-74 89.69,-61.58 64.01,-40.57 47.96,-26.15"/>
<polygon fill="#63b8ff" stroke="#63b8ff" points="50.23,-23.48 40.5,-19.28 45.49,-28.63 50.23,-23.48"/>
</a>
</g>
</g>
<!-- Node3 -->
<g id="Node000003" class="node">
<title>Node3</title>
<g id="a_Node000003"><a xlink:title=" ">
<polygon fill="#e0e0e0" stroke="#999999" points="306,-74 253,-74 253,-55 306,-55 306,-74"/>
<text text-anchor="middle" x="279.5" y="-62" font-family="Helvetica,sans-Serif" font-size="10.00">string.h</text>
</a>
</g>
</g>
<!-- Node1&#45;&gt;Node3 -->
<g id="edge2_Node000001_Node000003" class="edge">
<title>Node1&#45;&gt;Node3</title>
<g id="a_edge2_Node000001_Node000003"><a xlink:title=" ">
<path fill="none" stroke="#63b8ff" d="M303.75,-109.84C299.35,-101.78 293.79,-91.62 289.1,-83.06"/>
<polygon fill="#63b8ff" stroke="#63b8ff" points="292.16,-81.36 284.3,-74.27 286.02,-84.72 292.16,-81.36"/>
</a>
</g>
</g>
<!-- Node4 -->
<g id="Node000004" class="node">
<title>Node4</title>
<g id="a_Node000004"><a xlink:title=" ">
<polygon fill="#e0e0e0" stroke="#999999" points="164,-19 81,-19 81,0 164,0 164,-19"/>
<text text-anchor="middle" x="122.5" y="-7" font-family="Helvetica,sans-Serif" font-size="10.00">ArduinoJson.h</text>
</a>
</g>
</g>
<!-- Node1&#45;&gt;Node4 -->
<g id="edge3_Node000001_Node000004" class="edge">
<title>Node1&#45;&gt;Node4</title>
<g id="a_edge3_Node000001_Node000004"><a xlink:title=" ">
<path fill="none" stroke="#63b8ff" d="M247.8,-114.63C200.99,-106.35 142.97,-92.67 127.5,-74 117.26,-61.64 117.02,-42.87 118.74,-28.94"/>
<polygon fill="#63b8ff" stroke="#63b8ff" points="122.2,-29.46 120.38,-19.03 115.3,-28.32 122.2,-29.46"/>
</a>
</g>
</g>
<!-- Node5 -->
<g id="Node000005" class="node">
<title>Node5</title>
<g id="a_Node000005"><a xlink:title=" ">
<polygon fill="#e0e0e0" stroke="#999999" points="365,-74 324,-74 324,-55 365,-55 365,-74"/>
<text text-anchor="middle" x="344.5" y="-62" font-family="Helvetica,sans-Serif" font-size="10.00">SPI.h</text>
</a>
</g>
</g>
<!-- Node1&#45;&gt;Node5 -->
<g id="edge4_Node000001_Node000005" class="edge">
<title>Node1&#45;&gt;Node5</title>
<g id="a_edge4_Node000001_Node000005"><a xlink:title=" ">
<path fill="none" stroke="#63b8ff" d="M319.49,-109.84C324.03,-101.78 329.77,-91.62 334.6,-83.06"/>
<polygon fill="#63b8ff" stroke="#63b8ff" points="337.69,-84.7 339.56,-74.27 331.59,-81.26 337.69,-84.7"/>
</a>
</g>
</g>
<!-- Node6 -->
<g id="Node000006" class="node">
<title>Node6</title>
<g id="a_Node000006"><a xlink:title=" ">
<polygon fill="#e0e0e0" stroke="#999999" points="455.5,-74 383.5,-74 383.5,-55 455.5,-55 455.5,-74"/>
<text text-anchor="middle" x="419.5" y="-62" font-family="Helvetica,sans-Serif" font-size="10.00">MFRC522.h</text>
</a>
</g>
</g>
<!-- Node1&#45;&gt;Node6 -->
<g id="edge5_Node000001_Node000006" class="edge">
<title>Node1&#45;&gt;Node6</title>
<g id="a_edge5_Node000001_Node000006"><a xlink:title=" ">
<path fill="none" stroke="#63b8ff" d="M337.37,-109.99C354.74,-100.58 377.51,-88.24 394.67,-78.95"/>
<polygon fill="#63b8ff" stroke="#63b8ff" points="396.42,-81.98 403.55,-74.14 393.09,-75.82 396.42,-81.98"/>
</a>
</g>
</g>
<!-- Node7 -->
<g id="Node000007" class="node">
<title>Node7</title>
<g id="a_Node000007"><a xlink:title=" ">
<polygon fill="#e0e0e0" stroke="#999999" points="521.5,-74 473.5,-74 473.5,-55 521.5,-55 521.5,-74"/>
<text text-anchor="middle" x="497.5" y="-62" font-family="Helvetica,sans-Serif" font-size="10.00">Wire.h</text>
</a>
</g>
</g>
<!-- Node1&#45;&gt;Node7 -->
<g id="edge6_Node000001_Node000007" class="edge">
<title>Node1&#45;&gt;Node7</title>
<g id="a_edge6_Node000001_Node000007"><a xlink:title=" ">
<path fill="none" stroke="#63b8ff" d="M356.05,-109.99C389.17,-99.57 433.66,-85.58 463.84,-76.09"/>
<polygon fill="#63b8ff" stroke="#63b8ff" points="465,-79.39 473.49,-73.05 462.9,-72.71 465,-79.39"/>
</a>
</g>
</g>
<!-- Node8 -->
<g id="Node000008" class="node">
<title>Node8</title>
<g id="a_Node000008"><a xlink:title=" ">
<polygon fill="#e0e0e0" stroke="#999999" points="649.5,-74 539.5,-74 539.5,-55 649.5,-55 649.5,-74"/>
<text text-anchor="middle" x="594.5" y="-62" font-family="Helvetica,sans-Serif" font-size="10.00">LiquidCrystal_I2C.h</text>
</a>
</g>
</g>
<!-- Node1&#45;&gt;Node8 -->
<g id="edge7_Node000001_Node000008" class="edge">
<title>Node1&#45;&gt;Node8</title>
<g id="a_edge7_Node000001_Node000008"><a xlink:title=" ">
<path fill="none" stroke="#63b8ff" d="M375.01,-110.87C425.72,-100.39 495.86,-85.89 543.09,-76.13"/>
<polygon fill="#63b8ff" stroke="#63b8ff" points="544.01,-79.51 553.1,-74.06 542.59,-72.66 544.01,-79.51"/>
</a>
</g>
</g>
<!-- Node9 -->
<g id="Node000009" class="node">
<title>Node9</title>
<g id="a_Node000009"><a xlink:href="WiFiMqttClient_8h.html" target="_top" xlink:title="Lightweight WiFi + MQTT helper wrapper for ESP&#45;based Arduino systems.">
<polygon fill="white" stroke="#666666" points="234.5,-74 136.5,-74 136.5,-55 234.5,-55 234.5,-74"/>
<text text-anchor="middle" x="185.5" y="-62" font-family="Helvetica,sans-Serif" font-size="10.00">WiFiMqttClient.h</text>
</a>
</g>
</g>
<!-- Node1&#45;&gt;Node9 -->
<g id="edge8_Node000001_Node000009" class="edge">
<title>Node1&#45;&gt;Node9</title>
<g id="a_edge8_Node000001_Node000009"><a xlink:title=" ">
<path fill="none" stroke="#63b8ff" d="M281.32,-109.99C260.67,-100.4 233.5,-87.79 213.37,-78.44"/>
<polygon fill="#63b8ff" stroke="#63b8ff" points="214.65,-75.18 204.11,-74.14 211.7,-81.52 214.65,-75.18"/>
</a>
</g>
</g>
<!-- Node9&#45;&gt;Node2 -->
<g id="edge9_Node000009_Node000002" class="edge">
<title>Node9&#45;&gt;Node2</title>
<g id="a_edge9_Node000009_Node000002"><a xlink:title=" ">
<path fill="none" stroke="#63b8ff" d="M160.76,-54.98C135.13,-46.16 94.87,-32.31 66.09,-22.41"/>
<polygon fill="#63b8ff" stroke="#63b8ff" points="67.03,-19.03 56.44,-19.08 64.75,-25.65 67.03,-19.03"/>
</a>
</g>
</g>
<!-- Node9&#45;&gt;Node4 -->
<g id="edge11_Node000009_Node000004" class="edge">
<title>Node9&#45;&gt;Node4</title>
<g id="a_edge11_Node000009_Node000004"><a xlink:title=" ">
<path fill="none" stroke="#63b8ff" d="M175.38,-54.98C166.06,-47.15 152.03,-35.34 140.76,-25.86"/>
<polygon fill="#63b8ff" stroke="#63b8ff" points="142.71,-22.93 132.81,-19.17 138.21,-28.29 142.71,-22.93"/>
</a>
</g>
</g>
<!-- Node10 -->
<g id="Node000010" class="node">
<title>Node10</title>
<g id="a_Node000010"><a xlink:title=" ">
<polygon fill="#e0e0e0" stroke="#999999" points="272.5,-19 182.5,-19 182.5,0 272.5,0 272.5,-19"/>
<text text-anchor="middle" x="227.5" y="-7" font-family="Helvetica,sans-Serif" font-size="10.00">PubSubClient.h</text>
</a>
</g>
</g>
<!-- Node9&#45;&gt;Node10 -->
<g id="edge10_Node000009_Node000010" class="edge">
<title>Node9&#45;&gt;Node10</title>
<g id="a_edge10_Node000009_Node000010"><a xlink:title=" ">
<path fill="none" stroke="#63b8ff" d="M192.44,-54.75C198.37,-47.26 207.07,-36.28 214.32,-27.13"/>
<polygon fill="#63b8ff" stroke="#63b8ff" points="217.23,-29.1 220.69,-19.09 211.74,-24.75 217.23,-29.1"/>
</a>
</g>
</g>
<!-- Node11 -->
<g id="Node000011" class="node">
<title>Node11</title>
<g id="a_Node000011"><a xlink:title=" ">
<polygon fill="#e0e0e0" stroke="#999999" points="366,-19 291,-19 291,0 366,0 366,-19"/>
<text text-anchor="middle" x="328.5" y="-7" font-family="Helvetica,sans-Serif" font-size="10.00">WiFiClient.h</text>
</a>
</g>
</g>
<!-- Node9&#45;&gt;Node11 -->
<g id="edge12_Node000009_Node000011" class="edge">
<title>Node9&#45;&gt;Node11</title>
<g id="a_edge12_Node000009_Node000011"><a xlink:title=" ">
<path fill="none" stroke="#63b8ff" d="M208.48,-54.98C232,-46.27 268.79,-32.63 295.44,-22.75"/>
<polygon fill="#63b8ff" stroke="#63b8ff" points="296.95,-25.93 305.11,-19.17 294.51,-19.36 296.95,-25.93"/>
</a>
</g>
</g>
</g>
</svg>
