<?xml version="1.0" encoding="UTF-8" standalone="no"?>
<!DOCTYPE svg PUBLIC "-//W3C//DTD SVG 1.1//EN"
 "http://www.w3.org/Graphics/SVG/1.1/DTD/svg11.dtd">
<!-- Generated by graphviz version 2.43.0 (0)
 -->
<!-- Title: loop Pages: 1 -->
<svg width="280pt" height="101pt"
 viewBox="0.00 0.00 280.00 101.00" xmlns="http://www.w3.org/2000/svg" xmlns:xlink="http://www.w3.org/1999/xlink">

<svg id="main" version="1.1" xmlns="http://www.w3.org/2000/svg" xmlns:xlink="http://www.w3.org/1999/xlink" xml:space="preserve">

<style type="text/css"><![CDATA[
.node, .edge {opacity: 0.7;}
.node.selected, .edge.selected {opacity: 1;}
.edge:hover path { stroke: red; }
.edge:hover polygon { stroke: red; fill: red; }
]]></style>
<script type="application/ecmascript" xlink:href="svg.min.js"/>
<svg id="graph" class="graph">
<g id="graph0" class="graph" transform="scale(1 1) rotate(0) translate(4 97)">
<title>loop</title>
<!-- Node1 -->
<g id="Node000001" class="node">
<title>Node1</title>
<g id="a_Node000001"><a xlink:title="Arduino main loop.">
<polygon fill="#999999" stroke="#666666" points="38,-56 0,-56 0,-37 38,-37 38,-56"/>
<text text-anchor="middle" x="19" y="-44" font-family="Helvetica,sans-Serif" font-size="10.00">loop</text>
</a>
</g>
</g>
<!-- Node2 -->
<g id="Node000002" class="node">
<title>Node2</title>
<g id="a_Node000002"><a xlink:href="esp3_8ino.html#aff8c04e7b324ff4272911924db174640" target="_top" xlink:title="Forces the system into a locked idle state.">
<polygon fill="white" stroke="#666666" points="151,-93 87,-93 87,-74 151,-74 151,-93"/>
<text text-anchor="middle" x="119" y="-81" font-family="Helvetica,sans-Serif" font-size="10.00">forceLock</text>
</a>
</g>
</g>
<!-- Node1&#45;&gt;Node2 -->
<g id="edge1_Node000001_Node000002" class="edge">
<title>Node1&#45;&gt;Node2</title>
<g id="a_edge1_Node000001_Node000002"><a xlink:title=" ">
<path fill="none" stroke="#63b8ff" d="M38.43,-53.46C50.99,-58.2 68,-64.62 83.07,-70.31"/>
<polygon fill="#63b8ff" stroke="#63b8ff" points="82.03,-73.66 92.62,-73.92 84.5,-67.11 82.03,-73.66"/>
</a>
</g>
</g>
<!-- Node3 -->
<g id="Node000003" class="node">
<title>Node3</title>
<g id="a_Node000003"><a xlink:href="esp3_8ino.html#a4da2553f00d22f892f2fe8ee47e9db9f" target="_top" xlink:title="Plays lock sound pattern.">
<polygon fill="white" stroke="#666666" points="164,-56 74,-56 74,-37 164,-37 164,-56"/>
<text text-anchor="middle" x="119" y="-44" font-family="Helvetica,sans-Serif" font-size="10.00">playLockSound</text>
</a>
</g>
</g>
<!-- Node1&#45;&gt;Node3 -->
<g id="edge2_Node000001_Node000003" class="edge">
<title>Node1&#45;&gt;Node3</title>
<g id="a_edge2_Node000001_Node000003"><a xlink:title=" ">
<path fill="none" stroke="#63b8ff" d="M38.43,-46.5C45.68,-46.5 54.42,-46.5 63.42,-46.5"/>
<polygon fill="#63b8ff" stroke="#63b8ff" points="63.61,-50 73.61,-46.5 63.61,-43 63.61,-50"/>
</a>
</g>
</g>
<!-- Node6 -->
<g id="Node000006" class="node">
<title>Node6</title>
<g id="a_Node000006"><a xlink:href="esp3_8ino.html#a312e25f84437a687662bb53eceebec83" target="_top" xlink:title="Advances the buzzer state machine.">
<polygon fill="white" stroke="#666666" points="160.5,-19 77.5,-19 77.5,0 160.5,0 160.5,-19"/>
<text text-anchor="middle" x="119" y="-7" font-family="Helvetica,sans-Serif" font-size="10.00">updateBuzzer</text>
</a>
</g>
</g>
<!-- Node1&#45;&gt;Node6 -->
<g id="edge5_Node000001_Node000006" class="edge">
<title>Node1&#45;&gt;Node6</title>
<g id="a_edge5_Node000001_Node000006"><a xlink:title=" ">
<path fill="none" stroke="#63b8ff" d="M38.43,-39.54C50.99,-34.8 68,-28.38 83.07,-22.69"/>
<polygon fill="#63b8ff" stroke="#63b8ff" points="84.5,-25.89 92.62,-19.08 82.03,-19.34 84.5,-25.89"/>
</a>
</g>
</g>
<!-- Node4 -->
<g id="Node000004" class="node">
<title>Node4</title>
<g id="a_Node000004"><a xlink:href="esp3_8ino.html#a89ff5d59e14a11256f4dd5c82602f932" target="_top" xlink:title="Starts playing a buzzer pattern.">
<polygon fill="white" stroke="#666666" points="272,-74 200,-74 200,-55 272,-55 272,-74"/>
<text text-anchor="middle" x="236" y="-62" font-family="Helvetica,sans-Serif" font-size="10.00">playPattern</text>
</a>
</g>
</g>
<!-- Node3&#45;&gt;Node4 -->
<g id="edge3_Node000003_Node000004" class="edge">
<title>Node3&#45;&gt;Node4</title>
<g id="a_edge3_Node000003_Node000004"><a xlink:title=" ">
<path fill="none" stroke="#63b8ff" d="M164.13,-53.41C172.51,-54.72 181.29,-56.09 189.7,-57.41"/>
<polygon fill="#63b8ff" stroke="#63b8ff" points="189.3,-60.89 199.72,-58.98 190.39,-53.97 189.3,-60.89"/>
</a>
</g>
</g>
<!-- Node5 -->
<g id="Node000005" class="node">
<title>Node5</title>
<g id="a_Node000005"><a xlink:href="esp3_8ino.html#a95513a5e9cc3b574afa284a38c77d6e7" target="_top" xlink:title="Immediately stops any active buzzer sound.">
<polygon fill="white" stroke="#666666" points="271.5,-37 200.5,-37 200.5,-18 271.5,-18 271.5,-37"/>
<text text-anchor="middle" x="236" y="-25" font-family="Helvetica,sans-Serif" font-size="10.00">stopBuzzer</text>
</a>
</g>
</g>
<!-- Node3&#45;&gt;Node5 -->
<g id="edge4_Node000003_Node000005" class="edge">
<title>Node3&#45;&gt;Node5</title>
<g id="a_edge4_Node000003_Node000005"><a xlink:title=" ">
<path fill="none" stroke="#63b8ff" d="M164.13,-39.21C172.78,-37.78 181.86,-36.28 190.52,-34.85"/>
<polygon fill="#63b8ff" stroke="#63b8ff" points="191.15,-38.29 200.45,-33.21 190.01,-31.39 191.15,-38.29"/>
</a>
</g>
</g>
</g>
</svg>
</svg>

<style type='text/css'>
<![CDATA[
[data-mouse-over-selected='false'] { opacity: 0.7; }
[data-mouse-over-selected='true']  { opacity: 1.0; }
]]>
</style>
<script type="application/ecmascript"><![CDATA[
document.addEventListener('DOMContentLoaded', (event) => {
  highlightEdges();
  highlightAdjacentNodes();
});
]]></script>
</svg>
