<?xml version="1.0" encoding="UTF-8" standalone="no"?>
<!DOCTYPE svg PUBLIC "-//W3C//DTD SVG 1.1//EN"
 "http://www.w3.org/Graphics/SVG/1.1/DTD/svg11.dtd">
<!-- Generated by graphviz version 2.43.0 (0)
 -->
<!-- Title: playPattern Pages: 1 -->
<svg width="311pt" height="138pt"
 viewBox="0.00 0.00 311.00 138.00" xmlns="http://www.w3.org/2000/svg" xmlns:xlink="http://www.w3.org/1999/xlink">

<svg id="main" version="1.1" xmlns="http://www.w3.org/2000/svg" xmlns:xlink="http://www.w3.org/1999/xlink" xml:space="preserve">

<style type="text/css"><![CDATA[
.node, .edge {opacity: 0.7;}
.node.selected, .edge.selected {opacity: 1;}
.edge:hover path { stroke: red; }
.edge:hover polygon { stroke: red; fill: red; }
]]></style>
<script type="application/ecmascript" xlink:href="svg.min.js"/>
<svg id="graph" class="graph">
<g id="graph0" class="graph" transform="scale(1 1) rotate(0) translate(4 134)">
<title>playPattern</title>
<!-- Node1 -->
<g id="Node000001" class="node">
<title>Node1</title>
<g id="a_Node000001"><a xlink:title="Starts playing a buzzer pattern.">
<polygon fill="#999999" stroke="#666666" points="303,-74 231,-74 231,-55 303,-55 303,-74"/>
<text text-anchor="middle" x="267" y="-62" font-family="Helvetica,sans-Serif" font-size="10.00">playPattern</text>
</a>
</g>
</g>
<!-- Node2 -->
<g id="Node000002" class="node">
<title>Node2</title>
<g id="a_Node000002"><a xlink:href="esp3_8ino.html#a04bf0803eb139c30e08775daa9076ea6" target="_top" xlink:title="Plays denied&#45;access sound pattern.">
<polygon fill="white" stroke="#666666" points="195,-130 93,-130 93,-111 195,-111 195,-130"/>
<text text-anchor="middle" x="144" y="-118" font-family="Helvetica,sans-Serif" font-size="10.00">playDeniedSound</text>
</a>
</g>
</g>
<!-- Node1&#45;&gt;Node2 -->
<g id="edge1_Node000001_Node000002" class="edge">
<title>Node1&#45;&gt;Node2</title>
<g id="a_edge1_Node000001_Node000002"><a xlink:title=" ">
<path fill="none" stroke="#63b8ff" d="M240.65,-79.23C227.3,-86.69 210.52,-95.6 195,-102.5 188.26,-105.5 180.84,-108.38 173.84,-110.93"/>
<polygon fill="#63b8ff" stroke="#63b8ff" points="242.72,-82.08 249.7,-74.1 239.27,-75.99 242.72,-82.08"/>
</a>
</g>
</g>
<!-- Node4 -->
<g id="Node000004" class="node">
<title>Node4</title>
<g id="a_Node000004"><a xlink:href="esp3_8ino.html#a4da2553f00d22f892f2fe8ee47e9db9f" target="_top" xlink:title="Plays lock sound pattern.">
<polygon fill="white" stroke="#666666" points="189,-19 99,-19 99,0 189,0 189,-19"/>
<text text-anchor="middle" x="144" y="-7" font-family="Helvetica,sans-Serif" font-size="10.00">playLockSound</text>
</a>
</g>
</g>
<!-- Node1&#45;&gt;Node4 -->
<g id="edge3_Node000001_Node000004" class="edge">
<title>Node1&#45;&gt;Node4</title>
<g id="a_edge3_Node000001_Node000004"><a xlink:title=" ">
<path fill="none" stroke="#63b8ff" d="M239.45,-50.19C226.25,-43.3 209.95,-35.11 195,-28.5 187.53,-25.2 179.28,-21.92 171.68,-19.04"/>
<polygon fill="#63b8ff" stroke="#63b8ff" points="237.97,-53.37 248.45,-54.95 241.24,-47.18 237.97,-53.37"/>
</a>
</g>
</g>
<!-- Node6 -->
<g id="Node000006" class="node">
<title>Node6</title>
<g id="a_Node000006"><a xlink:href="esp3_8ino.html#a0f76dd1d3c15f21fc5dd0d4536f4c100" target="_top" xlink:title="Plays keypad tap sound.">
<polygon fill="white" stroke="#666666" points="186,-93 102,-93 102,-74 186,-74 186,-93"/>
<text text-anchor="middle" x="144" y="-81" font-family="Helvetica,sans-Serif" font-size="10.00">playTapSound</text>
</a>
</g>
</g>
<!-- Node1&#45;&gt;Node6 -->
<g id="edge5_Node000001_Node000006" class="edge">
<title>Node1&#45;&gt;Node6</title>
<g id="a_edge5_Node000001_Node000006"><a xlink:title=" ">
<path fill="none" stroke="#63b8ff" d="M220.56,-71.64C209.26,-73.41 197.21,-75.3 186.13,-77.04"/>
<polygon fill="#63b8ff" stroke="#63b8ff" points="221.34,-75.06 230.68,-70.05 220.25,-68.14 221.34,-75.06"/>
</a>
</g>
</g>
<!-- Node7 -->
<g id="Node000007" class="node">
<title>Node7</title>
<g id="a_Node000007"><a xlink:href="esp3_8ino.html#a979598b64139705fd13eb4ea50e0674c" target="_top" xlink:title="Plays unlock sound pattern.">
<polygon fill="white" stroke="#666666" points="194.5,-56 93.5,-56 93.5,-37 194.5,-37 194.5,-56"/>
<text text-anchor="middle" x="144" y="-44" font-family="Helvetica,sans-Serif" font-size="10.00">playUnlockSound</text>
</a>
</g>
</g>
<!-- Node1&#45;&gt;Node7 -->
<g id="edge7_Node000001_Node000007" class="edge">
<title>Node1&#45;&gt;Node7</title>
<g id="a_edge7_Node000001_Node000007"><a xlink:title=" ">
<path fill="none" stroke="#63b8ff" d="M220.57,-57.74C212.07,-56.48 203.15,-55.15 194.53,-53.87"/>
<polygon fill="#63b8ff" stroke="#63b8ff" points="220.27,-61.24 230.68,-59.25 221.3,-54.31 220.27,-61.24"/>
</a>
</g>
</g>
<!-- Node3 -->
<g id="Node000003" class="node">
<title>Node3</title>
<g id="a_Node000003"><a xlink:href="esp3_8ino.html#ac3a129f66dc859e2b7279565f4e1de78" target="_top" xlink:title="MQTT message callback handler.">
<polygon fill="white" stroke="#666666" points="57,-93 0,-93 0,-74 57,-74 57,-93"/>
<text text-anchor="middle" x="28.5" y="-81" font-family="Helvetica,sans-Serif" font-size="10.00">callback</text>
</a>
</g>
</g>
<!-- Node2&#45;&gt;Node3 -->
<g id="edge2_Node000002_Node000003" class="edge">
<title>Node2&#45;&gt;Node3</title>
<g id="a_edge2_Node000002_Node000003"><a xlink:title=" ">
<path fill="none" stroke="#63b8ff" d="M103.96,-107.77C88.53,-102.74 71.15,-97.08 57.07,-92.49"/>
<polygon fill="#63b8ff" stroke="#63b8ff" points="103.18,-111.2 113.77,-110.97 105.35,-104.54 103.18,-111.2"/>
</a>
</g>
</g>
<!-- Node5 -->
<g id="Node000005" class="node">
<title>Node5</title>
<g id="a_Node000005"><a xlink:href="esp3_8ino.html#afe461d27b9c48d5921c00d521181f12f" target="_top" xlink:title="Arduino main loop.">
<polygon fill="white" stroke="#666666" points="47.5,-19 9.5,-19 9.5,0 47.5,0 47.5,-19"/>
<text text-anchor="middle" x="28.5" y="-7" font-family="Helvetica,sans-Serif" font-size="10.00">loop</text>
</a>
</g>
</g>
<!-- Node4&#45;&gt;Node5 -->
<g id="edge4_Node000004_Node000005" class="edge">
<title>Node4&#45;&gt;Node5</title>
<g id="a_edge4_Node000004_Node000005"><a xlink:title=" ">
<path fill="none" stroke="#63b8ff" d="M88.65,-9.5C73.87,-9.5 58.87,-9.5 47.68,-9.5"/>
<polygon fill="#63b8ff" stroke="#63b8ff" points="88.79,-13 98.79,-9.5 88.79,-6 88.79,-13"/>
</a>
</g>
</g>
<!-- Node6&#45;&gt;Node3 -->
<g id="edge6_Node000006_Node000003" class="edge">
<title>Node6&#45;&gt;Node3</title>
<g id="a_edge6_Node000006_Node000003"><a xlink:title=" ">
<path fill="none" stroke="#63b8ff" d="M91.44,-83.5C79.61,-83.5 67.48,-83.5 57.13,-83.5"/>
<polygon fill="#63b8ff" stroke="#63b8ff" points="91.7,-87 101.7,-83.5 91.7,-80 91.7,-87"/>
</a>
</g>
</g>
<!-- Node7&#45;&gt;Node3 -->
<g id="edge8_Node000007_Node000003" class="edge">
<title>Node7&#45;&gt;Node3</title>
<g id="a_edge8_Node000007_Node000003"><a xlink:title=" ">
<path fill="none" stroke="#63b8ff" d="M103.96,-59.23C88.53,-64.26 71.15,-69.92 57.07,-74.51"/>
<polygon fill="#63b8ff" stroke="#63b8ff" points="105.35,-62.46 113.77,-56.03 103.18,-55.8 105.35,-62.46"/>
</a>
</g>
</g>
</g>
</svg>
</svg>

<style type='text/css'>
<![CDATA[
[data-mouse-over-selected='false'] { opacity: 0.7; }
[data-mouse-over-selected='true']  { opacity: 1.0; }
]]>
</style>
<script type="application/ecmascript"><![CDATA[
document.addEventListener('DOMContentLoaded', (event) => {
  highlightEdges();
  highlightAdjacentNodes();
});
]]></script>
</svg>
