<?xml version="1.0" encoding="UTF-8" standalone="no"?>
<!DOCTYPE svg PUBLIC "-//W3C//DTD SVG 1.1//EN"
 "http://www.w3.org/Graphics/SVG/1.1/DTD/svg11.dtd">
<!-- Generated by graphviz version 2.43.0 (0)
 -->
<!-- Title: callback Pages: 1 -->
<svg width="311pt" height="138pt"
 viewBox="0.00 0.00 311.00 138.00" xmlns="http://www.w3.org/2000/svg" xmlns:xlink="http://www.w3.org/1999/xlink">
<g id="graph0" class="graph" transform="scale(1 1) rotate(0) translate(4 134)">
<title>callback</title>
<!-- Node1 -->
<g id="Node000001" class="node">
<title>Node1</title>
<g id="a_Node000001"><a xlink:title="MQTT message callback handler.">
<polygon fill="#999999" stroke="#666666" points="57,-74 0,-74 0,-55 57,-55 57,-74"/>
<text text-anchor="middle" x="28.5" y="-62" font-family="Helvetica,sans-Serif" font-size="10.00">callback</text>
</a>
</g>
</g>
<!-- Node2 -->
<g id="Node000002" class="node">
<title>Node2</title>
<g id="a_Node000002"><a xlink:href="esp3_8ino.html#aff8c04e7b324ff4272911924db174640" target="_top" xlink:title="Forces the system into a locked idle state.">
<polygon fill="white" stroke="#666666" points="176,-130 112,-130 112,-111 176,-111 176,-130"/>
<text text-anchor="middle" x="144" y="-118" font-family="Helvetica,sans-Serif" font-size="10.00">forceLock</text>
</a>
</g>
</g>
<!-- Node1&#45;&gt;Node2 -->
<g id="edge1_Node000001_Node000002" class="edge">
<title>Node1&#45;&gt;Node2</title>
<g id="a_edge1_Node000001_Node000002"><a xlink:title=" ">
<path fill="none" stroke="#63b8ff" d="M43.69,-74.08C56.27,-82.31 75.35,-94.14 93,-102.5 96.56,-104.18 100.32,-105.81 104.11,-107.34"/>
<polygon fill="#63b8ff" stroke="#63b8ff" points="102.94,-110.64 113.53,-110.96 105.45,-104.11 102.94,-110.64"/>
</a>
</g>
</g>
<!-- Node3 -->
<g id="Node000003" class="node">
<title>Node3</title>
<g id="a_Node000003"><a xlink:href="esp3_8ino.html#a04bf0803eb139c30e08775daa9076ea6" target="_top" xlink:title="Plays denied&#45;access sound pattern.">
<polygon fill="white" stroke="#666666" points="195,-93 93,-93 93,-74 195,-74 195,-93"/>
<text text-anchor="middle" x="144" y="-81" font-family="Helvetica,sans-Serif" font-size="10.00">playDeniedSound</text>
</a>
</g>
</g>
<!-- Node1&#45;&gt;Node3 -->
<g id="edge2_Node000001_Node000003" class="edge">
<title>Node1&#45;&gt;Node3</title>
<g id="a_edge2_Node000001_Node000003"><a xlink:title=" ">
<path fill="none" stroke="#63b8ff" d="M57.27,-69.15C65.09,-70.46 73.91,-71.93 82.85,-73.43"/>
<polygon fill="#63b8ff" stroke="#63b8ff" points="82.5,-76.92 92.94,-75.12 83.65,-70.02 82.5,-76.92"/>
</a>
</g>
</g>
<!-- Node6 -->
<g id="Node000006" class="node">
<title>Node6</title>
<g id="a_Node000006"><a xlink:href="esp3_8ino.html#a0f76dd1d3c15f21fc5dd0d4536f4c100" target="_top" xlink:title="Plays keypad tap sound.">
<polygon fill="white" stroke="#666666" points="186,-56 102,-56 102,-37 186,-37 186,-56"/>
<text text-anchor="middle" x="144" y="-44" font-family="Helvetica,sans-Serif" font-size="10.00">playTapSound</text>
</a>
</g>
</g>
<!-- Node1&#45;&gt;Node6 -->
<g id="edge5_Node000001_Node000006" class="edge">
<title>Node1&#45;&gt;Node6</title>
<g id="a_edge5_Node000001_Node000006"><a xlink:title=" ">
<path fill="none" stroke="#63b8ff" d="M57.27,-60.1C67.72,-58.44 79.98,-56.49 91.9,-54.6"/>
<polygon fill="#63b8ff" stroke="#63b8ff" points="92.46,-58.06 101.79,-53.04 91.36,-51.15 92.46,-58.06"/>
</a>
</g>
</g>
<!-- Node7 -->
<g id="Node000007" class="node">
<title>Node7</title>
<g id="a_Node000007"><a xlink:href="esp3_8ino.html#a979598b64139705fd13eb4ea50e0674c" target="_top" xlink:title="Plays unlock sound pattern.">
<polygon fill="white" stroke="#666666" points="194.5,-19 93.5,-19 93.5,0 194.5,0 194.5,-19"/>
<text text-anchor="middle" x="144" y="-7" font-family="Helvetica,sans-Serif" font-size="10.00">playUnlockSound</text>
</a>
</g>
</g>
<!-- Node1&#45;&gt;Node7 -->
<g id="edge8_Node000001_Node000007" class="edge">
<title>Node1&#45;&gt;Node7</title>
<g id="a_edge8_Node000001_Node000007"><a xlink:title=" ">
<path fill="none" stroke="#63b8ff" d="M44.81,-54.94C57.46,-47.26 76.03,-36.48 93,-28.5 97.18,-26.54 101.62,-24.62 106.06,-22.8"/>
<polygon fill="#63b8ff" stroke="#63b8ff" points="107.67,-25.93 115.7,-19.01 105.11,-19.42 107.67,-25.93"/>
</a>
</g>
</g>
<!-- Node4 -->
<g id="Node000004" class="node">
<title>Node4</title>
<g id="a_Node000004"><a xlink:href="esp3_8ino.html#a89ff5d59e14a11256f4dd5c82602f932" target="_top" xlink:title="Starts playing a buzzer pattern.">
<polygon fill="white" stroke="#666666" points="303,-74 231,-74 231,-55 303,-55 303,-74"/>
<text text-anchor="middle" x="267" y="-62" font-family="Helvetica,sans-Serif" font-size="10.00">playPattern</text>
</a>
</g>
</g>
<!-- Node3&#45;&gt;Node4 -->
<g id="edge3_Node000003_Node000004" class="edge">
<title>Node3&#45;&gt;Node4</title>
<g id="a_edge3_Node000003_Node000004"><a xlink:title=" ">
<path fill="none" stroke="#63b8ff" d="M195.26,-75.61C203.76,-74.27 212.53,-72.9 220.88,-71.58"/>
<polygon fill="#63b8ff" stroke="#63b8ff" points="221.48,-75.03 230.81,-70.03 220.39,-68.12 221.48,-75.03"/>
</a>
</g>
</g>
<!-- Node5 -->
<g id="Node000005" class="node">
<title>Node5</title>
<g id="a_Node000005"><a xlink:href="esp3_8ino.html#a95513a5e9cc3b574afa284a38c77d6e7" target="_top" xlink:title="Immediately stops any active buzzer sound.">
<polygon fill="white" stroke="#666666" points="302.5,-37 231.5,-37 231.5,-18 302.5,-18 302.5,-37"/>
<text text-anchor="middle" x="267" y="-25" font-family="Helvetica,sans-Serif" font-size="10.00">stopBuzzer</text>
</a>
</g>
</g>
<!-- Node3&#45;&gt;Node5 -->
<g id="edge4_Node000003_Node000005" class="edge">
<title>Node3&#45;&gt;Node5</title>
<g id="a_edge4_Node000003_Node000005"><a xlink:title=" ">
<path fill="none" stroke="#63b8ff" d="M173.84,-73.93C180.84,-71.38 188.26,-68.5 195,-65.5 197.33,-64.46 220.13,-52.23 239.27,-41.92"/>
<polygon fill="#63b8ff" stroke="#63b8ff" points="241.12,-44.9 248.26,-37.08 237.8,-38.74 241.12,-44.9"/>
</a>
</g>
</g>
<!-- Node6&#45;&gt;Node4 -->
<g id="edge6_Node000006_Node000004" class="edge">
<title>Node6&#45;&gt;Node4</title>
<g id="a_edge6_Node000006_Node000004"><a xlink:title=" ">
<path fill="none" stroke="#63b8ff" d="M186.3,-52.64C197.42,-54.3 209.49,-56.09 220.8,-57.78"/>
<polygon fill="#63b8ff" stroke="#63b8ff" points="220.52,-61.27 230.93,-59.28 221.55,-54.35 220.52,-61.27"/>
</a>
</g>
</g>
<!-- Node6&#45;&gt;Node5 -->
<g id="edge7_Node000006_Node000005" class="edge">
<title>Node6&#45;&gt;Node5</title>
<g id="a_edge7_Node000006_Node000005"><a xlink:title=" ">
<path fill="none" stroke="#63b8ff" d="M186.3,-40.01C197.52,-38.25 209.72,-36.34 221.12,-34.55"/>
<polygon fill="#63b8ff" stroke="#63b8ff" points="221.99,-37.95 231.32,-32.95 220.9,-31.04 221.99,-37.95"/>
</a>
</g>
</g>
<!-- Node7&#45;&gt;Node4 -->
<g id="edge9_Node000007_Node000004" class="edge">
<title>Node7&#45;&gt;Node4</title>
<g id="a_edge9_Node000007_Node000004"><a xlink:title=" ">
<path fill="none" stroke="#63b8ff" d="M171.68,-19.04C179.28,-21.92 187.53,-25.2 195,-28.5 199.44,-30.46 220.39,-41.12 238.4,-50.33"/>
<polygon fill="#63b8ff" stroke="#63b8ff" points="236.94,-53.52 247.44,-54.96 240.14,-47.29 236.94,-53.52"/>
</a>
</g>
</g>
<!-- Node7&#45;&gt;Node5 -->
<g id="edge10_Node000007_Node000005" class="edge">
<title>Node7&#45;&gt;Node5</title>
<g id="a_edge10_Node000007_Node000005"><a xlink:title=" ">
<path fill="none" stroke="#63b8ff" d="M194.56,-16.87C203.48,-18.2 212.72,-19.57 221.48,-20.88"/>
<polygon fill="#63b8ff" stroke="#63b8ff" points="221.08,-24.36 231.49,-22.37 222.11,-17.43 221.08,-24.36"/>
</a>
</g>
</g>
</g>
</svg>
