<?xml version="1.0" encoding="UTF-8" standalone="no"?>
<!DOCTYPE svg PUBLIC "-//W3C//DTD SVG 1.1//EN"
 "http://www.w3.org/Graphics/SVG/1.1/DTD/svg11.dtd">
<!-- Generated by graphviz version 2.43.0 (0)
 -->
<!-- Title: stopBuzzer Pages: 1 -->
<svg width="310pt" height="138pt"
 viewBox="0.00 0.00 310.00 138.00" xmlns="http://www.w3.org/2000/svg" xmlns:xlink="http://www.w3.org/1999/xlink">
<g id="graph0" class="graph" transform="scale(1 1) rotate(0) translate(4 134)">
<title>stopBuzzer</title>
<!-- Node1 -->
<g id="Node000001" class="node">
<title>Node1</title>
<g id="a_Node000001"><a xlink:title="Immediately stops any active buzzer sound.">
<polygon fill="#999999" stroke="#666666" points="302,-74 231,-74 231,-55 302,-55 302,-74"/>
<text text-anchor="middle" x="266.5" y="-62" font-family="Helvetica,sans-Serif" font-size="10.00">stopBuzzer</text>
</a>
</g>
</g>
<!-- Node2 -->
<g id="Node000002" class="node">
<title>Node2</title>
<g id="a_Node000002"><a xlink:href="group__esp3.html#ga04bf0803eb139c30e08775daa9076ea6" target="_top" xlink:title="Plays denied&#45;access sound pattern.">
<polygon fill="white" stroke="#666666" points="195,-130 93,-130 93,-111 195,-111 195,-130"/>
<text text-anchor="middle" x="144" y="-118" font-family="Helvetica,sans-Serif" font-size="10.00">playDeniedSound</text>
</a>
</g>
</g>
<!-- Node1&#45;&gt;Node2 -->
<g id="edge1_Node000001_Node000002" class="edge">
<title>Node1&#45;&gt;Node2</title>
<g id="a_edge1_Node000001_Node000002"><a xlink:title=" ">
<path fill="none" stroke="#63b8ff" d="M240.34,-79.24C227.09,-86.7 210.43,-95.61 195,-102.5 188.26,-105.51 180.85,-108.4 173.85,-110.94"/>
<polygon fill="#63b8ff" stroke="#63b8ff" points="242.38,-82.11 249.32,-74.11 238.9,-76.03 242.38,-82.11"/>
</a>
</g>
</g>
<!-- Node4 -->
<g id="Node000004" class="node">
<title>Node4</title>
<g id="a_Node000004"><a xlink:href="group__esp3.html#ga4da2553f00d22f892f2fe8ee47e9db9f" target="_top" xlink:title="Plays lock sound pattern.">
<polygon fill="white" stroke="#666666" points="189,-19 99,-19 99,0 189,0 189,-19"/>
<text text-anchor="middle" x="144" y="-7" font-family="Helvetica,sans-Serif" font-size="10.00">playLockSound</text>
</a>
</g>
</g>
<!-- Node1&#45;&gt;Node4 -->
<g id="edge3_Node000001_Node000004" class="edge">
<title>Node1&#45;&gt;Node4</title>
<g id="a_edge3_Node000001_Node000004"><a xlink:title=" ">
<path fill="none" stroke="#63b8ff" d="M239.15,-50.18C226.04,-43.28 209.86,-35.09 195,-28.5 187.53,-25.19 179.29,-21.9 171.69,-19.03"/>
<polygon fill="#63b8ff" stroke="#63b8ff" points="237.61,-53.33 248.08,-54.93 240.9,-47.15 237.61,-53.33"/>
</a>
</g>
</g>
<!-- Node6 -->
<g id="Node000006" class="node">
<title>Node6</title>
<g id="a_Node000006"><a xlink:href="group__esp3.html#ga0f76dd1d3c15f21fc5dd0d4536f4c100" target="_top" xlink:title="Plays keypad tap sound.">
<polygon fill="white" stroke="#666666" points="186,-93 102,-93 102,-74 186,-74 186,-93"/>
<text text-anchor="middle" x="144" y="-81" font-family="Helvetica,sans-Serif" font-size="10.00">playTapSound</text>
</a>
</g>
</g>
<!-- Node1&#45;&gt;Node6 -->
<g id="edge5_Node000001_Node000006" class="edge">
<title>Node1&#45;&gt;Node6</title>
<g id="a_edge5_Node000001_Node000006"><a xlink:title=" ">
<path fill="none" stroke="#63b8ff" d="M220.87,-71.54C209.57,-73.32 197.49,-75.22 186.37,-76.98"/>
<polygon fill="#63b8ff" stroke="#63b8ff" points="221.64,-74.96 230.97,-69.94 220.55,-68.04 221.64,-74.96"/>
</a>
</g>
</g>
<!-- Node7 -->
<g id="Node000007" class="node">
<title>Node7</title>
<g id="a_Node000007"><a xlink:href="group__esp3.html#ga979598b64139705fd13eb4ea50e0674c" target="_top" xlink:title="Plays unlock sound pattern.">
<polygon fill="white" stroke="#666666" points="194.5,-56 93.5,-56 93.5,-37 194.5,-37 194.5,-56"/>
<text text-anchor="middle" x="144" y="-44" font-family="Helvetica,sans-Serif" font-size="10.00">playUnlockSound</text>
</a>
</g>
</g>
<!-- Node1&#45;&gt;Node7 -->
<g id="edge7_Node000001_Node000007" class="edge">
<title>Node1&#45;&gt;Node7</title>
<g id="a_edge7_Node000001_Node000007"><a xlink:title=" ">
<path fill="none" stroke="#63b8ff" d="M220.88,-57.83C212.38,-56.57 203.45,-55.23 194.8,-53.94"/>
<polygon fill="#63b8ff" stroke="#63b8ff" points="220.56,-61.33 230.97,-59.34 221.6,-54.4 220.56,-61.33"/>
</a>
</g>
</g>
<!-- Node3 -->
<g id="Node000003" class="node">
<title>Node3</title>
<g id="a_Node000003"><a xlink:href="group__esp3.html#gac3a129f66dc859e2b7279565f4e1de78" target="_top" xlink:title="MQTT message callback handler.">
<polygon fill="white" stroke="#666666" points="57,-93 0,-93 0,-74 57,-74 57,-93"/>
<text text-anchor="middle" x="28.5" y="-81" font-family="Helvetica,sans-Serif" font-size="10.00">callback</text>
</a>
</g>
</g>
<!-- Node2&#45;&gt;Node3 -->
<g id="edge2_Node000002_Node000003" class="edge">
<title>Node2&#45;&gt;Node3</title>
<g id="a_edge2_Node000002_Node000003"><a xlink:title=" ">
<path fill="none" stroke="#63b8ff" d="M103.96,-107.77C88.53,-102.74 71.15,-97.08 57.07,-92.49"/>
<polygon fill="#63b8ff" stroke="#63b8ff" points="103.18,-111.2 113.77,-110.97 105.35,-104.54 103.18,-111.2"/>
</a>
</g>
</g>
<!-- Node5 -->
<g id="Node000005" class="node">
<title>Node5</title>
<g id="a_Node000005"><a xlink:href="group__esp3.html#gafe461d27b9c48d5921c00d521181f12f" target="_top" xlink:title="Arduino main loop.">
<polygon fill="white" stroke="#666666" points="47.5,-19 9.5,-19 9.5,0 47.5,0 47.5,-19"/>
<text text-anchor="middle" x="28.5" y="-7" font-family="Helvetica,sans-Serif" font-size="10.00">loop</text>
</a>
</g>
</g>
<!-- Node4&#45;&gt;Node5 -->
<g id="edge4_Node000004_Node000005" class="edge">
<title>Node4&#45;&gt;Node5</title>
<g id="a_edge4_Node000004_Node000005"><a xlink:title=" ">
<path fill="none" stroke="#63b8ff" d="M88.65,-9.5C73.87,-9.5 58.87,-9.5 47.68,-9.5"/>
<polygon fill="#63b8ff" stroke="#63b8ff" points="88.79,-13 98.79,-9.5 88.79,-6 88.79,-13"/>
</a>
</g>
</g>
<!-- Node6&#45;&gt;Node3 -->
<g id="edge6_Node000006_Node000003" class="edge">
<title>Node6&#45;&gt;Node3</title>
<g id="a_edge6_Node000006_Node000003"><a xlink:title=" ">
<path fill="none" stroke="#63b8ff" d="M91.44,-83.5C79.61,-83.5 67.48,-83.5 57.13,-83.5"/>
<polygon fill="#63b8ff" stroke="#63b8ff" points="91.7,-87 101.7,-83.5 91.7,-80 91.7,-87"/>
</a>
</g>
</g>
<!-- Node7&#45;&gt;Node3 -->
<g id="edge8_Node000007_Node000003" class="edge">
<title>Node7&#45;&gt;Node3</title>
<g id="a_edge8_Node000007_Node000003"><a xlink:title=" ">
<path fill="none" stroke="#63b8ff" d="M103.96,-59.23C88.53,-64.26 71.15,-69.92 57.07,-74.51"/>
<polygon fill="#63b8ff" stroke="#63b8ff" points="105.35,-62.46 113.77,-56.03 103.18,-55.8 105.35,-62.46"/>
</a>
</g>
</g>
</g>
</svg>
