<?xml version="1.0" encoding="UTF-8" standalone="no"?>
<!DOCTYPE svg PUBLIC "-//W3C//DTD SVG 1.1//EN"
 "http://www.w3.org/Graphics/SVG/1.1/DTD/svg11.dtd">
<!-- Generated by graphviz version 2.43.0 (0)
 -->
<!-- Title: playDeniedSound Pages: 1 -->
<svg width="218pt" height="64pt"
 viewBox="0.00 0.00 218.00 64.00" xmlns="http://www.w3.org/2000/svg" xmlns:xlink="http://www.w3.org/1999/xlink">
<g id="graph0" class="graph" transform="scale(1 1) rotate(0) translate(4 60)">
<title>playDeniedSound</title>
<!-- Node1 -->
<g id="Node000001" class="node">
<title>Node1</title>
<g id="a_Node000001"><a xlink:title="Plays denied&#45;access sound pattern.">
<polygon fill="#999999" stroke="#666666" points="102,-37 0,-37 0,-18 102,-18 102,-37"/>
<text text-anchor="middle" x="51" y="-25" font-family="Helvetica,sans-Serif" font-size="10.00">playDeniedSound</text>
</a>
</g>
</g>
<!-- Node2 -->
<g id="Node000002" class="node">
<title>Node2</title>
<g id="a_Node000002"><a xlink:href="group__esp3.html#ga89ff5d59e14a11256f4dd5c82602f932" target="_top" xlink:title="Starts playing a buzzer pattern.">
<polygon fill="white" stroke="#666666" points="210,-56 138,-56 138,-37 210,-37 210,-56"/>
<text text-anchor="middle" x="174" y="-44" font-family="Helvetica,sans-Serif" font-size="10.00">playPattern</text>
</a>
</g>
</g>
<!-- Node1&#45;&gt;Node2 -->
<g id="edge1_Node000001_Node000002" class="edge">
<title>Node1&#45;&gt;Node2</title>
<g id="a_edge1_Node000001_Node000002"><a xlink:title=" ">
<path fill="none" stroke="#63b8ff" d="M102.26,-35.39C110.76,-36.73 119.53,-38.1 127.88,-39.42"/>
<polygon fill="#63b8ff" stroke="#63b8ff" points="127.39,-42.88 137.81,-40.97 128.48,-35.97 127.39,-42.88"/>
</a>
</g>
</g>
<!-- Node3 -->
<g id="Node000003" class="node">
<title>Node3</title>
<g id="a_Node000003"><a xlink:href="group__esp3.html#ga95513a5e9cc3b574afa284a38c77d6e7" target="_top" xlink:title="Immediately stops any active buzzer sound.">
<polygon fill="white" stroke="#666666" points="209.5,-19 138.5,-19 138.5,0 209.5,0 209.5,-19"/>
<text text-anchor="middle" x="174" y="-7" font-family="Helvetica,sans-Serif" font-size="10.00">stopBuzzer</text>
</a>
</g>
</g>
<!-- Node1&#45;&gt;Node3 -->
<g id="edge2_Node000001_Node000003" class="edge">
<title>Node1&#45;&gt;Node3</title>
<g id="a_edge2_Node000001_Node000003"><a xlink:title=" ">
<path fill="none" stroke="#63b8ff" d="M102.26,-20.02C110.85,-18.75 119.72,-17.43 128.15,-16.17"/>
<polygon fill="#63b8ff" stroke="#63b8ff" points="128.8,-19.61 138.18,-14.68 127.77,-12.69 128.8,-19.61"/>
</a>
</g>
</g>
</g>
</svg>
