<?xml version="1.0" encoding="UTF-8" standalone="no"?>
<!DOCTYPE svg PUBLIC "-//W3C//DTD SVG 1.1//EN"
 "http://www.w3.org/Graphics/SVG/1.1/DTD/svg11.dtd">
<!-- Generated by graphviz version 2.43.0 (0)
 -->
<!-- Title: updateMotionState Pages: 1 -->
<svg width="389pt" height="64pt"
 viewBox="0.00 0.00 389.00 64.00" xmlns="http://www.w3.org/2000/svg" xmlns:xlink="http://www.w3.org/1999/xlink">
<g id="graph0" class="graph" transform="scale(1 1) rotate(0) translate(4 60)">
<title>updateMotionState</title>
<!-- Node1 -->
<g id="Node000001" class="node">
<title>Node1</title>
<g id="a_Node000001"><a xlink:title="Updates motion state based on PIR sensor input.">
<polygon fill="#999999" stroke="#666666" points="110,-37 0,-37 0,-18 110,-18 110,-37"/>
<text text-anchor="middle" x="55" y="-25" font-family="Helvetica,sans-Serif" font-size="10.00">updateMotionState</text>
</a>
</g>
</g>
<!-- Node2 -->
<g id="Node000002" class="node">
<title>Node2</title>
<g id="a_Node000002"><a xlink:href="group__esp1.html#gade59c900943c3305d0209fb836346d95" target="_top" xlink:title="Handles motion&#45;detected events.">
<polygon fill="white" stroke="#666666" points="253,-56 146,-56 146,-37 253,-37 253,-56"/>
<text text-anchor="middle" x="199.5" y="-44" font-family="Helvetica,sans-Serif" font-size="10.00">onMotionDetected</text>
</a>
</g>
</g>
<!-- Node1&#45;&gt;Node2 -->
<g id="edge1_Node000001_Node000002" class="edge">
<title>Node1&#45;&gt;Node2</title>
<g id="a_edge1_Node000001_Node000002"><a xlink:title=" ">
<path fill="none" stroke="#63b8ff" d="M110.28,-34.74C118.56,-35.84 127.16,-36.99 135.6,-38.11"/>
<polygon fill="#63b8ff" stroke="#63b8ff" points="135.41,-41.62 145.78,-39.47 136.33,-34.68 135.41,-41.62"/>
</a>
</g>
</g>
<!-- Node4 -->
<g id="Node000004" class="node">
<title>Node4</title>
<g id="a_Node000004"><a xlink:href="group__esp1.html#gacafc4192a261b10303c3d691ac3f3340" target="_top" xlink:title="Handles motion&#45;idle state.">
<polygon fill="white" stroke="#666666" points="239.5,-19 159.5,-19 159.5,0 239.5,0 239.5,-19"/>
<text text-anchor="middle" x="199.5" y="-7" font-family="Helvetica,sans-Serif" font-size="10.00">onMotionIdle</text>
</a>
</g>
</g>
<!-- Node1&#45;&gt;Node4 -->
<g id="edge3_Node000001_Node000004" class="edge">
<title>Node1&#45;&gt;Node4</title>
<g id="a_edge3_Node000001_Node000004"><a xlink:title=" ">
<path fill="none" stroke="#63b8ff" d="M110.28,-20.64C123.06,-19.03 136.62,-17.32 149.17,-15.73"/>
<polygon fill="#63b8ff" stroke="#63b8ff" points="149.95,-19.16 159.43,-14.43 149.07,-12.22 149.95,-19.16"/>
</a>
</g>
</g>
<!-- Node3 -->
<g id="Node000003" class="node">
<title>Node3</title>
<g id="a_Node000003"><a xlink:href="group__esp1.html#gab09e66ce429f1e2dd70e188a52754e2b" target="_top" xlink:title="I2C LCD instance.">
<polygon fill="white" stroke="#666666" points="350.5,-56 319.5,-56 319.5,-37 350.5,-37 350.5,-56"/>
<text text-anchor="middle" x="335" y="-44" font-family="Helvetica,sans-Serif" font-size="10.00">lcd</text>
</a>
</g>
</g>
<!-- Node2&#45;&gt;Node3 -->
<g id="edge2_Node000002_Node000003" class="edge">
<title>Node2&#45;&gt;Node3</title>
<g id="a_edge2_Node000002_Node000003"><a xlink:title=" ">
<path fill="none" stroke="#63b8ff" d="M253.26,-46.5C272.5,-46.5 293.36,-46.5 309.05,-46.5"/>
<polygon fill="#63b8ff" stroke="#63b8ff" points="309.47,-50 319.47,-46.5 309.47,-43 309.47,-50"/>
</a>
</g>
</g>
<!-- Node4&#45;&gt;Node3 -->
<g id="edge5_Node000004_Node000003" class="edge">
<title>Node4&#45;&gt;Node3</title>
<g id="a_edge5_Node000004_Node000003"><a xlink:title=" ">
<path fill="none" stroke="#63b8ff" d="M234.88,-19.03C258.28,-25.51 288.67,-33.94 309.6,-39.74"/>
<polygon fill="#63b8ff" stroke="#63b8ff" points="308.75,-43.13 319.32,-42.43 310.62,-36.39 308.75,-43.13"/>
</a>
</g>
</g>
<!-- Node5 -->
<g id="Node000005" class="node">
<title>Node5</title>
<g id="a_Node000005"><a xlink:href="group__esp1.html#gafd31f405375298b91360c711cad4200f" target="_top" xlink:title="Checks whether the LCD backlight should remain active.">
<polygon fill="white" stroke="#666666" points="381,-19 289,-19 289,0 381,0 381,-19"/>
<text text-anchor="middle" x="335" y="-7" font-family="Helvetica,sans-Serif" font-size="10.00">isDisplayActive</text>
</a>
</g>
</g>
<!-- Node4&#45;&gt;Node5 -->
<g id="edge4_Node000004_Node000005" class="edge">
<title>Node4&#45;&gt;Node5</title>
<g id="a_edge4_Node000004_Node000005"><a xlink:title=" ">
<path fill="none" stroke="#63b8ff" d="M239.83,-9.5C251.97,-9.5 265.57,-9.5 278.58,-9.5"/>
<polygon fill="#63b8ff" stroke="#63b8ff" points="278.85,-13 288.85,-9.5 278.85,-6 278.85,-13"/>
</a>
</g>
</g>
</g>
</svg>
