<?xml version="1.0" encoding="UTF-8" standalone="no"?>
<!DOCTYPE svg PUBLIC "-//W3C//DTD SVG 1.1//EN"
 "http://www.w3.org/Graphics/SVG/1.1/DTD/svg11.dtd">
<!-- Generated by graphviz version 2.43.0 (0)
 -->
<!-- Title: mfrc522 Pages: 1 -->
<svg width="248pt" height="64pt"
 viewBox="0.00 0.00 248.00 64.00" xmlns="http://www.w3.org/2000/svg" xmlns:xlink="http://www.w3.org/1999/xlink">
<g id="graph0" class="graph" transform="scale(1 1) rotate(0) translate(4 60)">
<title>mfrc522</title>
<!-- Node1 -->
<g id="Node000001" class="node">
<title>Node1</title>
<g id="a_Node000001"><a xlink:title="MFRC522 RFID reader instance.">
<polygon fill="#999999" stroke="#666666" points="240,-37 183,-37 183,-18 240,-18 240,-37"/>
<text text-anchor="middle" x="211.5" y="-25" font-family="Helvetica,sans-Serif" font-size="10.00">mfrc522</text>
</a>
</g>
</g>
<!-- Node2 -->
<g id="Node000002" class="node">
<title>Node2</title>
<g id="a_Node000002"><a xlink:href="group__esp1.html#gaee754d5a9a7adc964e2458c556d31728" target="_top" xlink:title="Handles RFID card detection and request publishing.">
<polygon fill="white" stroke="#666666" points="147,-56 74,-56 74,-37 147,-37 147,-56"/>
<text text-anchor="middle" x="110.5" y="-44" font-family="Helvetica,sans-Serif" font-size="10.00">handleRFID</text>
</a>
</g>
</g>
<!-- Node1&#45;&gt;Node2 -->
<g id="edge1_Node000001_Node000002" class="edge">
<title>Node1&#45;&gt;Node2</title>
<g id="a_edge1_Node000001_Node000002"><a xlink:title=" ">
<path fill="none" stroke="#63b8ff" d="M172.91,-34.71C164.44,-36.34 155.47,-38.06 147.09,-39.67"/>
<polygon fill="#63b8ff" stroke="#63b8ff" points="173.76,-38.11 182.92,-32.79 172.44,-31.24 173.76,-38.11"/>
</a>
</g>
</g>
<!-- Node4 -->
<g id="Node000004" class="node">
<title>Node4</title>
<g id="a_Node000004"><a xlink:href="group__esp1.html#ga4fc01d736fe50cf5b977f755b675f11d" target="_top" xlink:title="Arduino setup function.">
<polygon fill="white" stroke="#666666" points="132.5,-19 88.5,-19 88.5,0 132.5,0 132.5,-19"/>
<text text-anchor="middle" x="110.5" y="-7" font-family="Helvetica,sans-Serif" font-size="10.00">setup</text>
</a>
</g>
</g>
<!-- Node1&#45;&gt;Node4 -->
<g id="edge3_Node000001_Node000004" class="edge">
<title>Node1&#45;&gt;Node4</title>
<g id="a_edge3_Node000001_Node000004"><a xlink:title=" ">
<path fill="none" stroke="#63b8ff" d="M172.84,-20.65C159.23,-18.18 144.35,-15.47 132.65,-13.35"/>
<polygon fill="#63b8ff" stroke="#63b8ff" points="172.46,-24.14 182.92,-22.49 173.71,-17.25 172.46,-24.14"/>
</a>
</g>
</g>
<!-- Node3 -->
<g id="Node000003" class="node">
<title>Node3</title>
<g id="a_Node000003"><a xlink:href="group__esp1.html#gafe461d27b9c48d5921c00d521181f12f" target="_top" xlink:title="Arduino main loop.">
<polygon fill="white" stroke="#666666" points="38,-56 0,-56 0,-37 38,-37 38,-56"/>
<text text-anchor="middle" x="19" y="-44" font-family="Helvetica,sans-Serif" font-size="10.00">loop</text>
</a>
</g>
</g>
<!-- Node2&#45;&gt;Node3 -->
<g id="edge2_Node000002_Node000003" class="edge">
<title>Node2&#45;&gt;Node3</title>
<g id="a_edge2_Node000002_Node000003"><a xlink:title=" ">
<path fill="none" stroke="#63b8ff" d="M63.66,-46.5C54.57,-46.5 45.53,-46.5 38.06,-46.5"/>
<polygon fill="#63b8ff" stroke="#63b8ff" points="63.87,-50 73.87,-46.5 63.87,-43 63.87,-50"/>
</a>
</g>
</g>
</g>
</svg>
