<?xml version="1.0" encoding="UTF-8" standalone="no"?>
<!DOCTYPE svg PUBLIC "-//W3C//DTD SVG 1.1//EN"
 "http://www.w3.org/Graphics/SVG/1.1/DTD/svg11.dtd">
<!-- Generated by graphviz version 2.43.0 (0)
 -->
<!-- Title: lcd Pages: 1 -->
<svg width="513pt" height="215pt"
 viewBox="0.00 0.00 513.00 215.33" xmlns="http://www.w3.org/2000/svg" xmlns:xlink="http://www.w3.org/1999/xlink">
<g id="graph0" class="graph" transform="scale(1 1) rotate(0) translate(4 211.33)">
<title>lcd</title>
<!-- Node1 -->
<g id="Node000001" class="node">
<title>Node1</title>
<g id="a_Node000001"><a xlink:title="I2C LCD instance.">
<polygon fill="#999999" stroke="#666666" points="505,-93 474,-93 474,-74 505,-74 505,-93"/>
<text text-anchor="middle" x="489.5" y="-81" font-family="Helvetica,sans-Serif" font-size="10.00">lcd</text>
</a>
</g>
</g>
<!-- Node2 -->
<g id="Node000002" class="node">
<title>Node2</title>
<g id="a_Node000002"><a xlink:href="group__esp1.html#ga1eec526201dccd228883774259151450" target="_top" xlink:title="Clears an LCD line and prints a flash&#45;resident string.">
<polygon fill="white" stroke="#666666" points="421.5,-130 347.5,-130 347.5,-111 421.5,-111 421.5,-130"/>
<text text-anchor="middle" x="384.5" y="-118" font-family="Helvetica,sans-Serif" font-size="10.00">lcdPrintLine</text>
</a>
</g>
</g>
<!-- Node1&#45;&gt;Node2 -->
<g id="edge1_Node000001_Node000002" class="edge">
<title>Node1&#45;&gt;Node2</title>
<g id="a_edge1_Node000001_Node000002"><a xlink:title=" ">
<path fill="none" stroke="#63b8ff" d="M464.24,-92.21C448.61,-97.83 428.28,-105.13 412.19,-110.91"/>
<polygon fill="#63b8ff" stroke="#63b8ff" points="465.51,-95.48 473.74,-88.8 463.15,-88.89 465.51,-95.48"/>
</a>
</g>
</g>
<!-- Node5 -->
<g id="Node000005" class="node">
<title>Node5</title>
<g id="a_Node000005"><a xlink:href="group__esp1.html#ga4fc01d736fe50cf5b977f755b675f11d" target="_top" xlink:title="Arduino setup function.">
<polygon fill="white" stroke="#666666" points="96.5,-205 52.5,-205 52.5,-186 96.5,-186 96.5,-205"/>
<text text-anchor="middle" x="74.5" y="-193" font-family="Helvetica,sans-Serif" font-size="10.00">setup</text>
</a>
</g>
</g>
<!-- Node1&#45;&gt;Node5 -->
<g id="edge16_Node000001_Node000005" class="edge">
<title>Node1&#45;&gt;Node5</title>
<g id="a_edge16_Node000001_Node000005"><a xlink:title=" ">
<path fill="none" stroke="#63b8ff" d="M475.68,-101.46C466.34,-113.5 452.78,-129.01 438,-139.5 381.79,-179.39 362.57,-185.9 295,-199.5 223.45,-213.9 136.12,-204.52 96.65,-198.88"/>
<polygon fill="#63b8ff" stroke="#63b8ff" points="478.5,-103.53 481.69,-93.42 472.89,-99.33 478.5,-103.53"/>
</a>
</g>
</g>
<!-- Node9 -->
<g id="Node000009" class="node">
<title>Node9</title>
<g id="a_Node000009"><a xlink:href="group__esp1.html#ga79a958a99f2c3f644266594c7df27b97" target="_top" xlink:title="Clears an LCD line and prints a RAM&#45;resident string.">
<polygon fill="white" stroke="#666666" points="421.5,-19 347.5,-19 347.5,0 421.5,0 421.5,-19"/>
<text text-anchor="middle" x="384.5" y="-7" font-family="Helvetica,sans-Serif" font-size="10.00">lcdPrintLine</text>
</a>
</g>
</g>
<!-- Node1&#45;&gt;Node9 -->
<g id="edge10_Node000001_Node000009" class="edge">
<title>Node1&#45;&gt;Node9</title>
<g id="a_edge10_Node000001_Node000009"><a xlink:title=" ">
<path fill="none" stroke="#63b8ff" d="M476.21,-65.65C466.97,-53.4 453.3,-37.6 438,-27.5 432.93,-24.15 427.18,-21.37 421.39,-19.06"/>
<polygon fill="#63b8ff" stroke="#63b8ff" points="473.42,-67.77 482.13,-73.81 479.09,-63.66 473.42,-67.77"/>
</a>
</g>
</g>
<!-- Node10 -->
<g id="Node000010" class="node">
<title>Node10</title>
<g id="a_Node000010"><a xlink:href="group__esp1.html#gade59c900943c3305d0209fb836346d95" target="_top" xlink:title="Handles motion&#45;detected events.">
<polygon fill="white" stroke="#666666" points="438,-93 331,-93 331,-74 438,-74 438,-93"/>
<text text-anchor="middle" x="384.5" y="-81" font-family="Helvetica,sans-Serif" font-size="10.00">onMotionDetected</text>
</a>
</g>
</g>
<!-- Node1&#45;&gt;Node10 -->
<g id="edge11_Node000001_Node000010" class="edge">
<title>Node1&#45;&gt;Node10</title>
<g id="a_edge11_Node000001_Node000010"><a xlink:title=" ">
<path fill="none" stroke="#63b8ff" d="M463.7,-83.5C456.01,-83.5 447.21,-83.5 438.36,-83.5"/>
<polygon fill="#63b8ff" stroke="#63b8ff" points="463.74,-87 473.74,-83.5 463.74,-80 463.74,-87"/>
</a>
</g>
</g>
<!-- Node12 -->
<g id="Node000012" class="node">
<title>Node12</title>
<g id="a_Node000012"><a xlink:href="group__esp1.html#gacafc4192a261b10303c3d691ac3f3340" target="_top" xlink:title="Handles motion&#45;idle state.">
<polygon fill="white" stroke="#666666" points="424.5,-56 344.5,-56 344.5,-37 424.5,-37 424.5,-56"/>
<text text-anchor="middle" x="384.5" y="-44" font-family="Helvetica,sans-Serif" font-size="10.00">onMotionIdle</text>
</a>
</g>
</g>
<!-- Node1&#45;&gt;Node12 -->
<g id="edge14_Node000001_Node000012" class="edge">
<title>Node1&#45;&gt;Node12</title>
<g id="a_edge14_Node000001_Node000012"><a xlink:title=" ">
<path fill="none" stroke="#63b8ff" d="M464.44,-74.28C456.09,-71.13 446.65,-67.61 438,-64.5 430.2,-61.7 421.72,-58.75 413.89,-56.06"/>
<polygon fill="#63b8ff" stroke="#63b8ff" points="463.37,-77.62 473.96,-77.9 465.85,-71.07 463.37,-77.62"/>
</a>
</g>
</g>
<!-- Node3 -->
<g id="Node000003" class="node">
<title>Node3</title>
<g id="a_Node000003"><a xlink:href="group__esp1.html#gac3a129f66dc859e2b7279565f4e1de78" target="_top" xlink:title="MQTT message callback handler.">
<polygon fill="white" stroke="#666666" points="268.5,-167 211.5,-167 211.5,-148 268.5,-148 268.5,-167"/>
<text text-anchor="middle" x="240" y="-155" font-family="Helvetica,sans-Serif" font-size="10.00">callback</text>
</a>
</g>
</g>
<!-- Node2&#45;&gt;Node3 -->
<g id="edge2_Node000002_Node000003" class="edge">
<title>Node2&#45;&gt;Node3</title>
<g id="a_edge2_Node000002_Node000003"><a xlink:title=" ">
<path fill="none" stroke="#63b8ff" d="M337.41,-132.47C314.75,-138.35 288.21,-145.24 268.71,-150.3"/>
<polygon fill="#63b8ff" stroke="#63b8ff" points="338.37,-135.83 347.17,-129.93 336.61,-129.06 338.37,-135.83"/>
</a>
</g>
</g>
<!-- Node2&#45;&gt;Node5 -->
<g id="edge9_Node000002_Node000005" class="edge">
<title>Node2&#45;&gt;Node5</title>
<g id="a_edge9_Node000002_Node000005"><a xlink:title=" ">
<path fill="none" stroke="#63b8ff" d="M364.37,-136.46C347.33,-149.68 321.12,-167.69 295,-176.5 225.41,-199.97 136.74,-198.92 96.75,-196.93"/>
<polygon fill="#63b8ff" stroke="#63b8ff" points="366.77,-139.02 372.4,-130.05 362.4,-133.55 366.77,-139.02"/>
</a>
</g>
</g>
<!-- Node6 -->
<g id="Node000006" class="node">
<title>Node6</title>
<g id="a_Node000006"><a xlink:href="group__esp1.html#gaff8c04e7b324ff4272911924db174640" target="_top" xlink:title="Forces the system back into locked idle state.">
<polygon fill="white" stroke="#666666" points="272,-130 208,-130 208,-111 272,-111 272,-130"/>
<text text-anchor="middle" x="240" y="-118" font-family="Helvetica,sans-Serif" font-size="10.00">forceLock</text>
</a>
</g>
</g>
<!-- Node2&#45;&gt;Node6 -->
<g id="edge5_Node000002_Node000006" class="edge">
<title>Node2&#45;&gt;Node6</title>
<g id="a_edge5_Node000002_Node000006"><a xlink:title=" ">
<path fill="none" stroke="#63b8ff" d="M337.09,-120.5C315.91,-120.5 291.39,-120.5 272.42,-120.5"/>
<polygon fill="#63b8ff" stroke="#63b8ff" points="337.17,-124 347.17,-120.5 337.17,-117 337.17,-124"/>
</a>
</g>
</g>
<!-- Node8 -->
<g id="Node000008" class="node">
<title>Node8</title>
<g id="a_Node000008"><a xlink:href="group__esp1.html#gaee754d5a9a7adc964e2458c556d31728" target="_top" xlink:title="Handles RFID card detection and request publishing.">
<polygon fill="white" stroke="#666666" points="276.5,-93 203.5,-93 203.5,-74 276.5,-74 276.5,-93"/>
<text text-anchor="middle" x="240" y="-81" font-family="Helvetica,sans-Serif" font-size="10.00">handleRFID</text>
</a>
</g>
</g>
<!-- Node2&#45;&gt;Node8 -->
<g id="edge7_Node000002_Node000008" class="edge">
<title>Node2&#45;&gt;Node8</title>
<g id="a_edge7_Node000002_Node000008"><a xlink:title=" ">
<path fill="none" stroke="#63b8ff" d="M337.48,-108.55C317.8,-103.44 295.16,-97.56 276.77,-92.79"/>
<polygon fill="#63b8ff" stroke="#63b8ff" points="336.61,-111.94 347.17,-111.07 338.37,-105.17 336.61,-111.94"/>
</a>
</g>
</g>
<!-- Node4 -->
<g id="Node000004" class="node">
<title>Node4</title>
<g id="a_Node000004"><a xlink:href="group__infrastructure.html#gac9ab08082d9cff38e1d5014d9a1e6bb7" target="_top" xlink:title="Sets the MQTT message callback.">
<polygon fill="white" stroke="#666666" points="149,-167 0,-167 0,-148 149,-148 149,-167"/>
<text text-anchor="middle" x="74.5" y="-155" font-family="Helvetica,sans-Serif" font-size="10.00">WifiMqttClient::setCallback</text>
</a>
</g>
</g>
<!-- Node3&#45;&gt;Node4 -->
<g id="edge3_Node000003_Node000004" class="edge">
<title>Node3&#45;&gt;Node4</title>
<g id="a_edge3_Node000003_Node000004"><a xlink:title=" ">
<path fill="none" stroke="#63b8ff" d="M201.07,-157.5C185.59,-157.5 167.14,-157.5 149.22,-157.5"/>
<polygon fill="#63b8ff" stroke="#63b8ff" points="201.26,-161 211.26,-157.5 201.26,-154 201.26,-161"/>
</a>
</g>
</g>
<!-- Node3&#45;&gt;Node5 -->
<g id="edge4_Node000003_Node000005" class="edge">
<title>Node3&#45;&gt;Node5</title>
<g id="a_edge4_Node000003_Node000005"><a xlink:title=" ">
<path fill="none" stroke="#63b8ff" d="M201.22,-166.28C168.71,-173.84 123.01,-184.46 96.6,-190.6"/>
<polygon fill="#63b8ff" stroke="#63b8ff" points="202.32,-169.62 211.26,-163.95 200.73,-162.8 202.32,-169.62"/>
</a>
</g>
</g>
<!-- Node7 -->
<g id="Node000007" class="node">
<title>Node7</title>
<g id="a_Node000007"><a xlink:href="group__esp1.html#gafe461d27b9c48d5921c00d521181f12f" target="_top" xlink:title="Arduino main loop.">
<polygon fill="white" stroke="#666666" points="93.5,-93 55.5,-93 55.5,-74 93.5,-74 93.5,-93"/>
<text text-anchor="middle" x="74.5" y="-81" font-family="Helvetica,sans-Serif" font-size="10.00">loop</text>
</a>
</g>
</g>
<!-- Node6&#45;&gt;Node7 -->
<g id="edge6_Node000006_Node000007" class="edge">
<title>Node6&#45;&gt;Node7</title>
<g id="a_edge6_Node000006_Node000007"><a xlink:title=" ">
<path fill="none" stroke="#63b8ff" d="M197.91,-111.2C164.48,-103.64 118.87,-93.32 93.83,-87.65"/>
<polygon fill="#63b8ff" stroke="#63b8ff" points="197.34,-114.66 207.86,-113.45 198.88,-107.83 197.34,-114.66"/>
</a>
</g>
</g>
<!-- Node8&#45;&gt;Node7 -->
<g id="edge8_Node000008_Node000007" class="edge">
<title>Node8&#45;&gt;Node7</title>
<g id="a_edge8_Node000008_Node000007"><a xlink:title=" ">
<path fill="none" stroke="#63b8ff" d="M192.8,-83.5C159.86,-83.5 117.36,-83.5 93.62,-83.5"/>
<polygon fill="#63b8ff" stroke="#63b8ff" points="193.12,-87 203.12,-83.5 193.12,-80 193.12,-87"/>
</a>
</g>
</g>
<!-- Node11 -->
<g id="Node000011" class="node">
<title>Node11</title>
<g id="a_Node000011"><a xlink:href="group__esp1.html#ga8df5568d50795a11cfd7fb0abb331131" target="_top" xlink:title="Updates motion state based on PIR sensor input.">
<polygon fill="white" stroke="#666666" points="295,-56 185,-56 185,-37 295,-37 295,-56"/>
<text text-anchor="middle" x="240" y="-44" font-family="Helvetica,sans-Serif" font-size="10.00">updateMotionState</text>
</a>
</g>
</g>
<!-- Node10&#45;&gt;Node11 -->
<g id="edge12_Node000010_Node000011" class="edge">
<title>Node10&#45;&gt;Node11</title>
<g id="a_edge12_Node000010_Node000011"><a xlink:title=" ">
<path fill="none" stroke="#63b8ff" d="M337.08,-71.45C317.96,-66.48 296.1,-60.81 278.07,-56.12"/>
<polygon fill="#63b8ff" stroke="#63b8ff" points="336.24,-74.85 346.8,-73.97 338,-68.07 336.24,-74.85"/>
</a>
</g>
</g>
<!-- Node11&#45;&gt;Node7 -->
<g id="edge13_Node000011_Node000007" class="edge">
<title>Node11&#45;&gt;Node7</title>
<g id="a_edge13_Node000011_Node000007"><a xlink:title=" ">
<path fill="none" stroke="#63b8ff" d="M186.84,-58.3C155.01,-65.51 116.28,-74.27 93.9,-79.34"/>
<polygon fill="#63b8ff" stroke="#63b8ff" points="187.91,-61.65 196.89,-56.03 186.37,-54.82 187.91,-61.65"/>
</a>
</g>
</g>
<!-- Node12&#45;&gt;Node11 -->
<g id="edge15_Node000012_Node000011" class="edge">
<title>Node12&#45;&gt;Node11</title>
<g id="a_edge15_Node000012_Node000011"><a xlink:title=" ">
<path fill="none" stroke="#63b8ff" d="M333.93,-46.5C321.39,-46.5 307.87,-46.5 295.12,-46.5"/>
<polygon fill="#63b8ff" stroke="#63b8ff" points="334.18,-50 344.18,-46.5 334.18,-43 334.18,-50"/>
</a>
</g>
</g>
</g>
</svg>
