<?xml version="1.0" encoding="UTF-8" standalone="no"?>
<!DOCTYPE svg PUBLIC "-//W3C//DTD SVG 1.1//EN"
 "http://www.w3.org/Graphics/SVG/1.1/DTD/svg11.dtd">
<!-- Generated by graphviz version 2.43.0 (0)
 -->
<!-- Title: setup Pages: 1 -->
<svg width="349pt" height="64pt"
 viewBox="0.00 0.00 349.00 64.00" xmlns="http://www.w3.org/2000/svg" xmlns:xlink="http://www.w3.org/1999/xlink">
<g id="graph0" class="graph" transform="scale(1 1) rotate(0) translate(4 60)">
<title>setup</title>
<!-- Node1 -->
<g id="Node000001" class="node">
<title>Node1</title>
<g id="a_Node000001"><a xlink:title="Arduino setup function.">
<polygon fill="#999999" stroke="#666666" points="44,-37 0,-37 0,-18 44,-18 44,-37"/>
<text text-anchor="middle" x="22" y="-25" font-family="Helvetica,sans-Serif" font-size="10.00">setup</text>
</a>
</g>
</g>
<!-- Node2 -->
<g id="Node000002" class="node">
<title>Node2</title>
<g id="a_Node000002"><a xlink:href="group__esp1.html#gac3a129f66dc859e2b7279565f4e1de78" target="_top" xlink:title="MQTT message callback handler.">
<polygon fill="white" stroke="#666666" points="137,-37 80,-37 80,-18 137,-18 137,-37"/>
<text text-anchor="middle" x="108.5" y="-25" font-family="Helvetica,sans-Serif" font-size="10.00">callback</text>
</a>
</g>
</g>
<!-- Node1&#45;&gt;Node2 -->
<g id="edge1_Node000001_Node000002" class="edge">
<title>Node1&#45;&gt;Node2</title>
<g id="a_edge1_Node000001_Node000002"><a xlink:title=" ">
<path fill="none" stroke="#63b8ff" d="M44.32,-27.5C52.05,-27.5 61.04,-27.5 69.76,-27.5"/>
<polygon fill="#63b8ff" stroke="#63b8ff" points="69.79,-31 79.79,-27.5 69.79,-24 69.79,-31"/>
</a>
</g>
</g>
<!-- Node3 -->
<g id="Node000003" class="node">
<title>Node3</title>
<g id="a_Node000003"><a xlink:href="group__esp1.html#ga1eec526201dccd228883774259151450" target="_top" xlink:title="Clears an LCD line and prints a flash&#45;resident string.">
<polygon fill="white" stroke="#666666" points="260.5,-56 186.5,-56 186.5,-37 260.5,-37 260.5,-56"/>
<text text-anchor="middle" x="223.5" y="-44" font-family="Helvetica,sans-Serif" font-size="10.00">lcdPrintLine</text>
</a>
</g>
</g>
<!-- Node2&#45;&gt;Node3 -->
<g id="edge2_Node000002_Node000003" class="edge">
<title>Node2&#45;&gt;Node3</title>
<g id="a_edge2_Node000002_Node000003"><a xlink:title=" ">
<path fill="none" stroke="#63b8ff" d="M137.14,-32.15C148.91,-34.13 162.96,-36.49 176.23,-38.72"/>
<polygon fill="#63b8ff" stroke="#63b8ff" points="175.73,-42.19 186.18,-40.39 176.9,-35.28 175.73,-42.19"/>
</a>
</g>
</g>
<!-- Node5 -->
<g id="Node000005" class="node">
<title>Node5</title>
<g id="a_Node000005"><a xlink:href="group__esp1.html#gac8b922f2a416a064034b689152827cce" target="_top" xlink:title="Builds a masked PIN string for LCD display.">
<polygon fill="white" stroke="#666666" points="274,-19 173,-19 173,0 274,0 274,-19"/>
<text text-anchor="middle" x="223.5" y="-7" font-family="Helvetica,sans-Serif" font-size="10.00">makeEnteredPins</text>
</a>
</g>
</g>
<!-- Node2&#45;&gt;Node5 -->
<g id="edge4_Node000002_Node000005" class="edge">
<title>Node2&#45;&gt;Node5</title>
<g id="a_edge4_Node000002_Node000005"><a xlink:title=" ">
<path fill="none" stroke="#63b8ff" d="M137.14,-23.1C144.93,-21.86 153.71,-20.46 162.61,-19.04"/>
<polygon fill="#63b8ff" stroke="#63b8ff" points="163.33,-22.47 172.66,-17.44 162.23,-15.56 163.33,-22.47"/>
</a>
</g>
</g>
<!-- Node4 -->
<g id="Node000004" class="node">
<title>Node4</title>
<g id="a_Node000004"><a xlink:href="group__esp1.html#gab09e66ce429f1e2dd70e188a52754e2b" target="_top" xlink:title="I2C LCD instance.">
<polygon fill="white" stroke="#666666" points="341,-56 310,-56 310,-37 341,-37 341,-56"/>
<text text-anchor="middle" x="325.5" y="-44" font-family="Helvetica,sans-Serif" font-size="10.00">lcd</text>
</a>
</g>
</g>
<!-- Node3&#45;&gt;Node4 -->
<g id="edge3_Node000003_Node000004" class="edge">
<title>Node3&#45;&gt;Node4</title>
<g id="a_edge3_Node000003_Node000004"><a xlink:title=" ">
<path fill="none" stroke="#63b8ff" d="M260.6,-46.5C273.62,-46.5 288.01,-46.5 299.83,-46.5"/>
<polygon fill="#63b8ff" stroke="#63b8ff" points="299.85,-50 309.85,-46.5 299.85,-43 299.85,-50"/>
</a>
</g>
</g>
</g>
</svg>
