<?xml version="1.0" encoding="UTF-8" standalone="no"?>
<!DOCTYPE svg PUBLIC "-//W3C//DTD SVG 1.1//EN"
 "http://www.w3.org/Graphics/SVG/1.1/DTD/svg11.dtd">
<!-- Generated by graphviz version 2.43.0 (0)
 -->
<!-- Title: lcdPrintLine Pages: 1 -->
<svg width="376pt" height="140pt"
 viewBox="0.00 0.00 376.00 140.00" xmlns="http://www.w3.org/2000/svg" xmlns:xlink="http://www.w3.org/1999/xlink">

<svg id="main" version="1.1" xmlns="http://www.w3.org/2000/svg" xmlns:xlink="http://www.w3.org/1999/xlink" xml:space="preserve">

<style type="text/css"><![CDATA[
.node, .edge {opacity: 0.7;}
.node.selected, .edge.selected {opacity: 1;}
.edge:hover path { stroke: red; }
.edge:hover polygon { stroke: red; fill: red; }
]]></style>
<script type="application/ecmascript" xlink:href="svg.min.js"/>
<svg id="graph" class="graph">
<g id="graph0" class="graph" transform="scale(1 1) rotate(0) translate(4 136)">
<title>lcdPrintLine</title>
<!-- Node1 -->
<g id="Node000001" class="node">
<title>Node1</title>
<g id="a_Node000001"><a xlink:title="Clears an LCD line and prints a flash&#45;resident string.">
<polygon fill="#999999" stroke="#666666" points="368,-75 294,-75 294,-56 368,-56 368,-75"/>
<text text-anchor="middle" x="331" y="-63" font-family="Helvetica,sans-Serif" font-size="10.00">lcdPrintLine</text>
</a>
</g>
</g>
<!-- Node2 -->
<g id="Node000002" class="node">
<title>Node2</title>
<g id="a_Node000002"><a xlink:href="group__esp1.html#gac3a129f66dc859e2b7279565f4e1de78" target="_top" xlink:title="MQTT message callback handler.">
<polygon fill="white" stroke="#666666" points="250,-132 193,-132 193,-113 250,-113 250,-132"/>
<text text-anchor="middle" x="221.5" y="-120" font-family="Helvetica,sans-Serif" font-size="10.00">callback</text>
</a>
</g>
</g>
<!-- Node1&#45;&gt;Node2 -->
<g id="edge1_Node000001_Node000002" class="edge">
<title>Node1&#45;&gt;Node2</title>
<g id="a_edge1_Node000001_Node000002"><a xlink:title=" ">
<path fill="none" stroke="#63b8ff" d="M302.74,-79.95C283.22,-90.31 257.47,-103.96 240.47,-112.97"/>
<polygon fill="#63b8ff" stroke="#63b8ff" points="304.57,-82.95 311.76,-75.17 301.29,-76.76 304.57,-82.95"/>
</a>
</g>
</g>
<!-- Node4 -->
<g id="Node000004" class="node">
<title>Node4</title>
<g id="a_Node000004"><a xlink:href="group__esp1.html#ga4fc01d736fe50cf5b977f755b675f11d" target="_top" xlink:title="Arduino setup function.">
<polygon fill="white" stroke="#666666" points="96.5,-94 52.5,-94 52.5,-75 96.5,-75 96.5,-94"/>
<text text-anchor="middle" x="74.5" y="-82" font-family="Helvetica,sans-Serif" font-size="10.00">setup</text>
</a>
</g>
</g>
<!-- Node1&#45;&gt;Node4 -->
<g id="edge8_Node000001_Node000004" class="edge">
<title>Node1&#45;&gt;Node4</title>
<g id="a_edge8_Node000001_Node000004"><a xlink:title=" ">
<path fill="none" stroke="#63b8ff" d="M283.53,-68.97C228,-73.11 137.48,-79.87 96.66,-82.92"/>
<polygon fill="#63b8ff" stroke="#63b8ff" points="284.09,-72.44 293.81,-68.2 283.57,-65.46 284.09,-72.44"/>
</a>
</g>
</g>
<!-- Node5 -->
<g id="Node000005" class="node">
<title>Node5</title>
<g id="a_Node000005"><a xlink:href="group__esp1.html#gaff8c04e7b324ff4272911924db174640" target="_top" xlink:title="Forces the system back into locked idle state.">
<polygon fill="white" stroke="#666666" points="253.5,-56 189.5,-56 189.5,-37 253.5,-37 253.5,-56"/>
<text text-anchor="middle" x="221.5" y="-44" font-family="Helvetica,sans-Serif" font-size="10.00">forceLock</text>
</a>
</g>
</g>
<!-- Node1&#45;&gt;Node5 -->
<g id="edge4_Node000001_Node000005" class="edge">
<title>Node1&#45;&gt;Node5</title>
<g id="a_edge4_Node000001_Node000005"><a xlink:title=" ">
<path fill="none" stroke="#63b8ff" d="M283.88,-57.35C273.67,-55.54 263.09,-53.67 253.64,-52"/>
<polygon fill="#63b8ff" stroke="#63b8ff" points="283.45,-60.83 293.91,-59.12 284.67,-53.93 283.45,-60.83"/>
</a>
</g>
</g>
<!-- Node7 -->
<g id="Node000007" class="node">
<title>Node7</title>
<g id="a_Node000007"><a xlink:href="group__esp1.html#gaee754d5a9a7adc964e2458c556d31728" target="_top" xlink:title="Handles RFID card detection and request publishing.">
<polygon fill="white" stroke="#666666" points="258,-19 185,-19 185,0 258,0 258,-19"/>
<text text-anchor="middle" x="221.5" y="-7" font-family="Helvetica,sans-Serif" font-size="10.00">handleRFID</text>
</a>
</g>
</g>
<!-- Node1&#45;&gt;Node7 -->
<g id="edge6_Node000001_Node000007" class="edge">
<title>Node1&#45;&gt;Node7</title>
<g id="a_edge6_Node000001_Node000007"><a xlink:title=" ">
<path fill="none" stroke="#63b8ff" d="M302.8,-51.01C289.35,-43.88 272.85,-35.18 258,-27.5 252.72,-24.77 246.98,-21.84 241.69,-19.16"/>
<polygon fill="#63b8ff" stroke="#63b8ff" points="301.52,-54.29 311.99,-55.89 304.8,-48.11 301.52,-54.29"/>
</a>
</g>
</g>
<!-- Node3 -->
<g id="Node000003" class="node">
<title>Node3</title>
<g id="a_Node000003"><a xlink:href="group__infrastructure.html#gac9ab08082d9cff38e1d5014d9a1e6bb7" target="_top" xlink:title="Sets the MQTT message callback.">
<polygon fill="white" stroke="#666666" points="149,-132 0,-132 0,-113 149,-113 149,-132"/>
<text text-anchor="middle" x="74.5" y="-120" font-family="Helvetica,sans-Serif" font-size="10.00">WifiMqttClient::setCallback</text>
</a>
</g>
</g>
<!-- Node2&#45;&gt;Node3 -->
<g id="edge2_Node000002_Node000003" class="edge">
<title>Node2&#45;&gt;Node3</title>
<g id="a_edge2_Node000002_Node000003"><a xlink:title=" ">
<path fill="none" stroke="#63b8ff" d="M182.62,-122.5C172.3,-122.5 160.75,-122.5 149.16,-122.5"/>
<polygon fill="#63b8ff" stroke="#63b8ff" points="182.89,-126 192.89,-122.5 182.89,-119 182.89,-126"/>
</a>
</g>
</g>
<!-- Node2&#45;&gt;Node4 -->
<g id="edge3_Node000002_Node000004" class="edge">
<title>Node2&#45;&gt;Node4</title>
<g id="a_edge3_Node000002_Node000004"><a xlink:title=" ">
<path fill="none" stroke="#63b8ff" d="M182.87,-112.64C155.52,-105.47 119.47,-96.02 96.88,-90.1"/>
<polygon fill="#63b8ff" stroke="#63b8ff" points="182.32,-116.11 192.89,-115.26 184.1,-109.34 182.32,-116.11"/>
</a>
</g>
</g>
<!-- Node6 -->
<g id="Node000006" class="node">
<title>Node6</title>
<g id="a_Node000006"><a xlink:href="group__esp1.html#gafe461d27b9c48d5921c00d521181f12f" target="_top" xlink:title="Arduino main loop.">
<polygon fill="white" stroke="#666666" points="93.5,-38 55.5,-38 55.5,-19 93.5,-19 93.5,-38"/>
<text text-anchor="middle" x="74.5" y="-26" font-family="Helvetica,sans-Serif" font-size="10.00">loop</text>
</a>
</g>
</g>
<!-- Node5&#45;&gt;Node6 -->
<g id="edge5_Node000005_Node000006" class="edge">
<title>Node5&#45;&gt;Node6</title>
<g id="a_edge5_Node000005_Node000006"><a xlink:title=" ">
<path fill="none" stroke="#63b8ff" d="M179.4,-41.4C151.19,-37.9 115.12,-33.42 93.74,-30.76"/>
<polygon fill="#63b8ff" stroke="#63b8ff" points="179.04,-44.88 189.39,-42.64 179.9,-37.93 179.04,-44.88"/>
</a>
</g>
</g>
<!-- Node7&#45;&gt;Node6 -->
<g id="edge7_Node000007_Node000006" class="edge">
<title>Node7&#45;&gt;Node6</title>
<g id="a_edge7_Node000007_Node000006"><a xlink:title=" ">
<path fill="none" stroke="#63b8ff" d="M174.49,-15.53C147.1,-19.12 113.88,-23.47 93.73,-26.11"/>
<polygon fill="#63b8ff" stroke="#63b8ff" points="175.2,-18.97 184.66,-14.2 174.29,-12.03 175.2,-18.97"/>
</a>
</g>
</g>
</g>
</svg>
</svg>

<style type='text/css'>
<![CDATA[
[data-mouse-over-selected='false'] { opacity: 0.7; }
[data-mouse-over-selected='true']  { opacity: 1.0; }
]]>
</style>
<script type="application/ecmascript"><![CDATA[
document.addEventListener('DOMContentLoaded', (event) => {
  highlightEdges();
  highlightAdjacentNodes();
});
]]></script>
</svg>
