<?xml version="1.0" encoding="UTF-8" standalone="no"?>
<!DOCTYPE svg PUBLIC "-//W3C//DTD SVG 1.1//EN"
 "http://www.w3.org/Graphics/SVG/1.1/DTD/svg11.dtd">
<!-- Generated by graphviz version 2.43.0 (0)
 -->
<!-- Title: setup Pages: 1 -->
<svg width="349pt" height="140pt"
 viewBox="0.00 0.00 349.00 140.00" xmlns="http://www.w3.org/2000/svg" xmlns:xlink="http://www.w3.org/1999/xlink">
<g id="graph0" class="graph" transform="scale(1 1) rotate(0) translate(4 136)">
<title>setup</title>
<!-- Node1 -->
<g id="Node000001" class="node">
<title>Node1</title>
<g id="a_Node000001"><a xlink:title="Arduino setup function.">
<polygon fill="#999999" stroke="#666666" points="44,-76 0,-76 0,-57 44,-57 44,-76"/>
<text text-anchor="middle" x="22" y="-64" font-family="Helvetica,sans-Serif" font-size="10.00">setup</text>
</a>
</g>
</g>
<!-- Node2 -->
<g id="Node000002" class="node">
<title>Node2</title>
<g id="a_Node000002"><a xlink:href="group__esp1.html#gac3a129f66dc859e2b7279565f4e1de78" target="_top" xlink:title="MQTT message callback handler.">
<polygon fill="white" stroke="#666666" points="137,-95 80,-95 80,-76 137,-76 137,-95"/>
<text text-anchor="middle" x="108.5" y="-83" font-family="Helvetica,sans-Serif" font-size="10.00">callback</text>
</a>
</g>
</g>
<!-- Node1&#45;&gt;Node2 -->
<g id="edge1_Node000001_Node000002" class="edge">
<title>Node1&#45;&gt;Node2</title>
<g id="a_edge1_Node000001_Node000002"><a xlink:title=" ">
<path fill="none" stroke="#63b8ff" d="M44.32,-71.29C52.05,-73.03 61.04,-75.05 69.76,-77.01"/>
<polygon fill="#63b8ff" stroke="#63b8ff" points="69.26,-80.49 79.79,-79.27 70.8,-73.66 69.26,-80.49"/>
</a>
</g>
</g>
<!-- Node3 -->
<g id="Node000003" class="node">
<title>Node3</title>
<g id="a_Node000003"><a xlink:href="group__esp1.html#ga1eec526201dccd228883774259151450" target="_top" xlink:title="Clears an LCD line and prints a flash&#45;resident string.">
<polygon fill="white" stroke="#666666" points="260.5,-132 186.5,-132 186.5,-113 260.5,-113 260.5,-132"/>
<text text-anchor="middle" x="223.5" y="-120" font-family="Helvetica,sans-Serif" font-size="10.00">lcdPrintLine</text>
</a>
</g>
</g>
<!-- Node1&#45;&gt;Node3 -->
<g id="edge6_Node000001_Node000003" class="edge">
<title>Node1&#45;&gt;Node3</title>
<g id="a_edge6_Node000001_Node000003"><a xlink:title=" ">
<path fill="none" stroke="#63b8ff" d="M33.92,-76.06C44.81,-85 62.39,-97.94 80,-104.5 110.8,-115.98 147.66,-120.41 176.18,-122.01"/>
<polygon fill="#63b8ff" stroke="#63b8ff" points="176.13,-125.51 186.28,-122.48 176.45,-118.52 176.13,-125.51"/>
</a>
</g>
</g>
<!-- Node4 -->
<g id="Node000004" class="node">
<title>Node4</title>
<g id="a_Node000004"><a xlink:href="group__esp1.html#gab09e66ce429f1e2dd70e188a52754e2b" target="_top" xlink:title="I2C LCD instance.">
<polygon fill="white" stroke="#666666" points="341,-94 310,-94 310,-75 341,-75 341,-94"/>
<text text-anchor="middle" x="325.5" y="-82" font-family="Helvetica,sans-Serif" font-size="10.00">lcd</text>
</a>
</g>
</g>
<!-- Node1&#45;&gt;Node4 -->
<g id="edge5_Node000001_Node000004" class="edge">
<title>Node1&#45;&gt;Node4</title>
<g id="a_edge5_Node000001_Node000004"><a xlink:title=" ">
<path fill="none" stroke="#63b8ff" d="M44.01,-64.34C87.37,-60.36 189.74,-53.53 274,-67.5 282.82,-68.96 292.19,-71.75 300.42,-74.64"/>
<polygon fill="#63b8ff" stroke="#63b8ff" points="299.2,-77.92 309.8,-78.15 301.66,-71.37 299.2,-77.92"/>
</a>
</g>
</g>
<!-- Node6 -->
<g id="Node000006" class="node">
<title>Node6</title>
<g id="a_Node000006"><a xlink:href="group__esp1.html#ga2251823e12f034625cf955d83d4ec6b6" target="_top" xlink:title="MFRC522 RFID reader instance.">
<polygon fill="white" stroke="#666666" points="137,-19 80,-19 80,0 137,0 137,-19"/>
<text text-anchor="middle" x="108.5" y="-7" font-family="Helvetica,sans-Serif" font-size="10.00">mfrc522</text>
</a>
</g>
</g>
<!-- Node1&#45;&gt;Node6 -->
<g id="edge7_Node000001_Node000006" class="edge">
<title>Node1&#45;&gt;Node6</title>
<g id="a_edge7_Node000001_Node000006"><a xlink:title=" ">
<path fill="none" stroke="#63b8ff" d="M37.33,-56.83C50.4,-48.02 69.92,-34.85 85.05,-24.64"/>
<polygon fill="#63b8ff" stroke="#63b8ff" points="87.04,-27.52 93.38,-19.03 83.13,-21.72 87.04,-27.52"/>
</a>
</g>
</g>
<!-- Node2&#45;&gt;Node3 -->
<g id="edge2_Node000002_Node000003" class="edge">
<title>Node2&#45;&gt;Node3</title>
<g id="a_edge2_Node000002_Node000003"><a xlink:title=" ">
<path fill="none" stroke="#63b8ff" d="M137.14,-94.55C151.08,-99.11 168.22,-104.73 183.47,-109.72"/>
<polygon fill="#63b8ff" stroke="#63b8ff" points="182.58,-113.11 193.17,-112.9 184.75,-106.46 182.58,-113.11"/>
</a>
</g>
</g>
<!-- Node5 -->
<g id="Node000005" class="node">
<title>Node5</title>
<g id="a_Node000005"><a xlink:href="group__esp1.html#gac8b922f2a416a064034b689152827cce" target="_top" xlink:title="Builds a masked PIN string for LCD display.">
<polygon fill="white" stroke="#666666" points="274,-95 173,-95 173,-76 274,-76 274,-95"/>
<text text-anchor="middle" x="223.5" y="-83" font-family="Helvetica,sans-Serif" font-size="10.00">makeEnteredPins</text>
</a>
</g>
</g>
<!-- Node2&#45;&gt;Node5 -->
<g id="edge4_Node000002_Node000005" class="edge">
<title>Node2&#45;&gt;Node5</title>
<g id="a_edge4_Node000002_Node000005"><a xlink:title=" ">
<path fill="none" stroke="#63b8ff" d="M137.14,-85.5C144.93,-85.5 153.71,-85.5 162.61,-85.5"/>
<polygon fill="#63b8ff" stroke="#63b8ff" points="162.66,-89 172.66,-85.5 162.66,-82 162.66,-89"/>
</a>
</g>
</g>
<!-- Node3&#45;&gt;Node4 -->
<g id="edge3_Node000003_Node000004" class="edge">
<title>Node3&#45;&gt;Node4</title>
<g id="a_edge3_Node000003_Node000004"><a xlink:title=" ">
<path fill="none" stroke="#63b8ff" d="M251.27,-112.92C258.65,-110.24 266.65,-107.29 274,-104.5 282.65,-101.22 292.09,-97.51 300.44,-94.19"/>
<polygon fill="#63b8ff" stroke="#63b8ff" points="301.97,-97.35 309.96,-90.39 299.37,-90.85 301.97,-97.35"/>
</a>
</g>
</g>
</g>
</svg>
