<?xml version="1.0" encoding="UTF-8" standalone="no"?>
<!DOCTYPE svg PUBLIC "-//W3C//DTD SVG 1.1//EN"
 "http://www.w3.org/Graphics/SVG/1.1/DTD/svg11.dtd">
<!-- Generated by graphviz version 2.43.0 (0)
 -->
<!-- Title: callback Pages: 1 -->
<svg width="250pt" height="64pt"
 viewBox="0.00 0.00 250.00 64.00" xmlns="http://www.w3.org/2000/svg" xmlns:xlink="http://www.w3.org/1999/xlink">
<g id="graph0" class="graph" transform="scale(1 1) rotate(0) translate(4 60)">
<title>callback</title>
<!-- Node1 -->
<g id="Node000001" class="node">
<title>Node1</title>
<g id="a_Node000001"><a xlink:title="MQTT message callback handler.">
<polygon fill="#999999" stroke="#666666" points="242,-37 185,-37 185,-18 242,-18 242,-37"/>
<text text-anchor="middle" x="213.5" y="-25" font-family="Helvetica,sans-Serif" font-size="10.00">callback</text>
</a>
</g>
</g>
<!-- Node2 -->
<g id="Node000002" class="node">
<title>Node2</title>
<g id="a_Node000002"><a xlink:href="group__infrastructure.html#gac9ab08082d9cff38e1d5014d9a1e6bb7" target="_top" xlink:title="Sets the MQTT message callback.">
<polygon fill="white" stroke="#666666" points="149,-56 0,-56 0,-37 149,-37 149,-56"/>
<text text-anchor="middle" x="74.5" y="-44" font-family="Helvetica,sans-Serif" font-size="10.00">WifiMqttClient::setCallback</text>
</a>
</g>
</g>
<!-- Node1&#45;&gt;Node2 -->
<g id="edge1_Node000001_Node000002" class="edge">
<title>Node1&#45;&gt;Node2</title>
<g id="a_edge1_Node000001_Node000002"><a xlink:title=" ">
<path fill="none" stroke="#63b8ff" d="M174.57,-32.76C165.12,-34.07 154.7,-35.52 144.26,-36.96"/>
<polygon fill="#63b8ff" stroke="#63b8ff" points="175.35,-36.19 184.78,-31.34 174.39,-29.25 175.35,-36.19"/>
</a>
</g>
</g>
<!-- Node3 -->
<g id="Node000003" class="node">
<title>Node3</title>
<g id="a_Node000003"><a xlink:href="group__esp1.html#ga4fc01d736fe50cf5b977f755b675f11d" target="_top" xlink:title="Arduino setup function.">
<polygon fill="white" stroke="#666666" points="96.5,-19 52.5,-19 52.5,0 96.5,0 96.5,-19"/>
<text text-anchor="middle" x="74.5" y="-7" font-family="Helvetica,sans-Serif" font-size="10.00">setup</text>
</a>
</g>
</g>
<!-- Node1&#45;&gt;Node3 -->
<g id="edge2_Node000001_Node000003" class="edge">
<title>Node1&#45;&gt;Node3</title>
<g id="a_edge2_Node000001_Node000003"><a xlink:title=" ">
<path fill="none" stroke="#63b8ff" d="M174.85,-22.55C149.77,-19.26 117.71,-15.05 96.9,-12.31"/>
<polygon fill="#63b8ff" stroke="#63b8ff" points="174.41,-26.02 184.78,-23.86 175.32,-19.08 174.41,-26.02"/>
</a>
</g>
</g>
</g>
</svg>
