<?xml version="1.0" encoding="UTF-8" standalone="no"?>
<!DOCTYPE svg PUBLIC "-//W3C//DTD SVG 1.1//EN"
 "http://www.w3.org/Graphics/SVG/1.1/DTD/svg11.dtd">
<!-- Generated by graphviz version 2.43.0 (0)
 -->
<!-- Title: lib/WiFiMqttClient/src/WiFiMqttClient.cpp Pages: 1 -->
<svg width="374pt" height="148pt"
 viewBox="0.00 0.00 374.00 148.00" xmlns="http://www.w3.org/2000/svg" xmlns:xlink="http://www.w3.org/1999/xlink">
<g id="graph0" class="graph" transform="scale(1 1) rotate(0) translate(4 144)">
<title>lib/WiFiMqttClient/src/WiFiMqttClient.cpp</title>
<!-- Node1 -->
<g id="Node000001" class="node">
<title>Node1</title>
<g id="a_Node000001"><a xlink:title="Implementation of the WifiMqttClient helper class.">
<polygon fill="#999999" stroke="#666666" points="299,-140 170,-140 170,-110 299,-110 299,-140"/>
<text text-anchor="start" x="178" y="-128" font-family="Helvetica,sans-Serif" font-size="10.00">lib/WiFiMqttClient</text>
<text text-anchor="middle" x="234.5" y="-117" font-family="Helvetica,sans-Serif" font-size="10.00">/src/WiFiMqttClient.cpp</text>
</a>
</g>
</g>
<!-- Node2 -->
<g id="Node000002" class="node">
<title>Node2</title>
<g id="a_Node000002"><a xlink:href="WiFiMqttClient_8h.html" target="_top" xlink:title="Lightweight WiFi + MQTT helper wrapper for ESP&#45;based Arduino systems.">
<polygon fill="white" stroke="#666666" points="227.5,-74 129.5,-74 129.5,-55 227.5,-55 227.5,-74"/>
<text text-anchor="middle" x="178.5" y="-62" font-family="Helvetica,sans-Serif" font-size="10.00">WiFiMqttClient.h</text>
</a>
</g>
</g>
<!-- Node1&#45;&gt;Node2 -->
<g id="edge1_Node000001_Node000002" class="edge">
<title>Node1&#45;&gt;Node2</title>
<g id="a_edge1_Node000001_Node000002"><a xlink:title=" ">
<path fill="none" stroke="#63b8ff" d="M220.94,-109.84C212.82,-101.35 202.45,-90.52 194,-81.69"/>
<polygon fill="#63b8ff" stroke="#63b8ff" points="196.33,-79.07 186.89,-74.27 191.28,-83.91 196.33,-79.07"/>
</a>
</g>
</g>
<!-- Node7 -->
<g id="Node000007" class="node">
<title>Node7</title>
<g id="a_Node000007"><a xlink:title=" ">
<polygon fill="#e0e0e0" stroke="#999999" points="335,-74 246,-74 246,-55 335,-55 335,-74"/>
<text text-anchor="middle" x="290.5" y="-62" font-family="Helvetica,sans-Serif" font-size="10.00">ESP8266WiFi.h</text>
</a>
</g>
</g>
<!-- Node1&#45;&gt;Node7 -->
<g id="edge6_Node000001_Node000007" class="edge">
<title>Node1&#45;&gt;Node7</title>
<g id="a_edge6_Node000001_Node000007"><a xlink:title=" ">
<path fill="none" stroke="#63b8ff" d="M248.06,-109.84C256.18,-101.35 266.55,-90.52 275,-81.69"/>
<polygon fill="#63b8ff" stroke="#63b8ff" points="277.72,-83.91 282.11,-74.27 272.67,-79.07 277.72,-83.91"/>
</a>
</g>
</g>
<!-- Node3 -->
<g id="Node000003" class="node">
<title>Node3</title>
<g id="a_Node000003"><a xlink:title=" ">
<polygon fill="#e0e0e0" stroke="#999999" points="63,-19 0,-19 0,0 63,0 63,-19"/>
<text text-anchor="middle" x="31.5" y="-7" font-family="Helvetica,sans-Serif" font-size="10.00">Arduino.h</text>
</a>
</g>
</g>
<!-- Node2&#45;&gt;Node3 -->
<g id="edge2_Node000002_Node000003" class="edge">
<title>Node2&#45;&gt;Node3</title>
<g id="a_edge2_Node000002_Node000003"><a xlink:title=" ">
<path fill="none" stroke="#63b8ff" d="M154.88,-54.98C130.6,-46.23 92.55,-32.51 65.13,-22.62"/>
<polygon fill="#63b8ff" stroke="#63b8ff" points="66.14,-19.27 55.55,-19.17 63.77,-25.85 66.14,-19.27"/>
</a>
</g>
</g>
<!-- Node4 -->
<g id="Node000004" class="node">
<title>Node4</title>
<g id="a_Node000004"><a xlink:title=" ">
<polygon fill="#e0e0e0" stroke="#999999" points="171.5,-19 81.5,-19 81.5,0 171.5,0 171.5,-19"/>
<text text-anchor="middle" x="126.5" y="-7" font-family="Helvetica,sans-Serif" font-size="10.00">PubSubClient.h</text>
</a>
</g>
</g>
<!-- Node2&#45;&gt;Node4 -->
<g id="edge3_Node000002_Node000004" class="edge">
<title>Node2&#45;&gt;Node4</title>
<g id="a_edge3_Node000002_Node000004"><a xlink:title=" ">
<path fill="none" stroke="#63b8ff" d="M169.91,-54.75C162.34,-47.03 151.12,-35.6 141.99,-26.28"/>
<polygon fill="#63b8ff" stroke="#63b8ff" points="144.43,-23.78 134.93,-19.09 139.43,-28.68 144.43,-23.78"/>
</a>
</g>
</g>
<!-- Node5 -->
<g id="Node000005" class="node">
<title>Node5</title>
<g id="a_Node000005"><a xlink:title=" ">
<polygon fill="#e0e0e0" stroke="#999999" points="273,-19 190,-19 190,0 273,0 273,-19"/>
<text text-anchor="middle" x="231.5" y="-7" font-family="Helvetica,sans-Serif" font-size="10.00">ArduinoJson.h</text>
</a>
</g>
</g>
<!-- Node2&#45;&gt;Node5 -->
<g id="edge4_Node000002_Node000005" class="edge">
<title>Node2&#45;&gt;Node5</title>
<g id="a_edge4_Node000002_Node000005"><a xlink:title=" ">
<path fill="none" stroke="#63b8ff" d="M187.25,-54.75C194.97,-47.03 206.4,-35.6 215.72,-26.28"/>
<polygon fill="#63b8ff" stroke="#63b8ff" points="218.31,-28.64 222.91,-19.09 213.36,-23.69 218.31,-28.64"/>
</a>
</g>
</g>
<!-- Node6 -->
<g id="Node000006" class="node">
<title>Node6</title>
<g id="a_Node000006"><a xlink:title=" ">
<polygon fill="#e0e0e0" stroke="#999999" points="366,-19 291,-19 291,0 366,0 366,-19"/>
<text text-anchor="middle" x="328.5" y="-7" font-family="Helvetica,sans-Serif" font-size="10.00">WiFiClient.h</text>
</a>
</g>
</g>
<!-- Node2&#45;&gt;Node6 -->
<g id="edge5_Node000002_Node000006" class="edge">
<title>Node2&#45;&gt;Node6</title>
<g id="a_edge5_Node000002_Node000006"><a xlink:title=" ">
<path fill="none" stroke="#63b8ff" d="M202.6,-54.98C227.38,-46.23 266.2,-32.51 294.19,-22.62"/>
<polygon fill="#63b8ff" stroke="#63b8ff" points="295.7,-25.8 303.96,-19.17 293.37,-19.2 295.7,-25.8"/>
</a>
</g>
</g>
</g>
</svg>
