<?xml version="1.0" encoding="UTF-8" standalone="no"?>
<!DOCTYPE svg PUBLIC "-//W3C//DTD SVG 1.1//EN"
 "http://www.w3.org/Graphics/SVG/1.1/DTD/svg11.dtd">
<!-- Generated by graphviz version 2.43.0 (0)
 -->
<!-- Title: lib/WiFiMqttClient/src/WiFiMqttClient.h Pages: 1 -->
<svg width="568pt" height="104pt"
 viewBox="0.00 0.00 568.00 104.00" xmlns="http://www.w3.org/2000/svg" xmlns:xlink="http://www.w3.org/1999/xlink">
<g id="graph0" class="graph" transform="scale(1 1) rotate(0) translate(4 100)">
<title>lib/WiFiMqttClient/src/WiFiMqttClient.h</title>
<!-- Node1 -->
<g id="Node000001" class="node">
<title>Node1</title>
<g id="a_Node000001"><a xlink:title=" ">
<polygon fill="#999999" stroke="#666666" points="357.5,-96 239.5,-96 239.5,-66 357.5,-66 357.5,-96"/>
<text text-anchor="start" x="247.5" y="-84" font-family="Helvetica,sans-Serif" font-size="10.00">lib/WiFiMqttClient</text>
<text text-anchor="middle" x="298.5" y="-73" font-family="Helvetica,sans-Serif" font-size="10.00">/src/WiFiMqttClient.h</text>
</a>
</g>
</g>
<!-- Node2 -->
<g id="Node000002" class="node">
<title>Node2</title>
<g id="a_Node000002"><a xlink:href="esp1__rfid__motion_8ino.html" target="_top" xlink:title="RFID + PIN based access controller with LCD, motion sensing, and MQTT.">
<polygon fill="white" stroke="#666666" points="127,-30 0,-30 0,0 127,0 127,-30"/>
<text text-anchor="start" x="8" y="-18" font-family="Helvetica,sans-Serif" font-size="10.00">esp1_rfid_motion/esp1</text>
<text text-anchor="middle" x="63.5" y="-7" font-family="Helvetica,sans-Serif" font-size="10.00">_rfid_motion.ino</text>
</a>
</g>
</g>
<!-- Node1&#45;&gt;Node2 -->
<g id="edge1_Node000001_Node000002" class="edge">
<title>Node1&#45;&gt;Node2</title>
<g id="a_edge1_Node000001_Node000002"><a xlink:title=" ">
<path fill="none" stroke="#63b8ff" d="M237.01,-63.25C199.04,-52.91 150.89,-39.8 114.95,-30.01"/>
<polygon fill="#63b8ff" stroke="#63b8ff" points="236.36,-66.7 246.93,-65.95 238.2,-59.95 236.36,-66.7"/>
</a>
</g>
</g>
<!-- Node3 -->
<g id="Node000003" class="node">
<title>Node3</title>
<g id="a_Node000003"><a xlink:href="esp2__keypad_8ino.html" target="_top" xlink:title="Keypad&#45;based PIN entry controller with MQTT backend integration.">
<polygon fill="white" stroke="#666666" points="310,-24.5 145,-24.5 145,-5.5 310,-5.5 310,-24.5"/>
<text text-anchor="middle" x="227.5" y="-12.5" font-family="Helvetica,sans-Serif" font-size="10.00">esp2_keypad/esp2_keypad.ino</text>
</a>
</g>
</g>
<!-- Node1&#45;&gt;Node3 -->
<g id="edge2_Node000001_Node000003" class="edge">
<title>Node1&#45;&gt;Node3</title>
<g id="a_edge2_Node000001_Node000003"><a xlink:title=" ">
<path fill="none" stroke="#63b8ff" d="M275.13,-58.93C262.28,-47.35 247.03,-33.61 237.31,-24.84"/>
<polygon fill="#63b8ff" stroke="#63b8ff" points="272.97,-61.7 282.74,-65.8 277.66,-56.5 272.97,-61.7"/>
</a>
</g>
</g>
<!-- Node4 -->
<g id="Node000004" class="node">
<title>Node4</title>
<g id="a_Node000004"><a xlink:href="esp3_8ino.html" target="_top" xlink:title="Door actuator, buzzer, and LED controller with MQTT integration.">
<polygon fill="white" stroke="#666666" points="412.5,-24.5 328.5,-24.5 328.5,-5.5 412.5,-5.5 412.5,-24.5"/>
<text text-anchor="middle" x="370.5" y="-12.5" font-family="Helvetica,sans-Serif" font-size="10.00">esp3/esp3.ino</text>
</a>
</g>
</g>
<!-- Node1&#45;&gt;Node4 -->
<g id="edge3_Node000001_Node000004" class="edge">
<title>Node1&#45;&gt;Node4</title>
<g id="a_edge3_Node000001_Node000004"><a xlink:title=" ">
<path fill="none" stroke="#63b8ff" d="M322.2,-58.93C335.23,-47.35 350.69,-33.61 360.55,-24.84"/>
<polygon fill="#63b8ff" stroke="#63b8ff" points="319.63,-56.54 314.48,-65.8 324.28,-61.77 319.63,-56.54"/>
</a>
</g>
</g>
<!-- Node5 -->
<g id="Node000005" class="node">
<title>Node5</title>
<g id="a_Node000005"><a xlink:href="WiFiMqttClient_8cpp.html" target="_top" xlink:title="Implementation of the WifiMqttClient helper class.">
<polygon fill="white" stroke="#666666" points="560,-30 431,-30 431,0 560,0 560,-30"/>
<text text-anchor="start" x="439" y="-18" font-family="Helvetica,sans-Serif" font-size="10.00">lib/WiFiMqttClient</text>
<text text-anchor="middle" x="495.5" y="-7" font-family="Helvetica,sans-Serif" font-size="10.00">/src/WiFiMqttClient.cpp</text>
</a>
</g>
</g>
<!-- Node1&#45;&gt;Node5 -->
<g id="edge4_Node000001_Node000005" class="edge">
<title>Node1&#45;&gt;Node5</title>
<g id="a_edge4_Node000001_Node000005"><a xlink:title=" ">
<path fill="none" stroke="#63b8ff" d="M351.27,-62.86C382.9,-52.58 422.62,-39.68 452.37,-30.01"/>
<polygon fill="#63b8ff" stroke="#63b8ff" points="350.16,-59.54 341.73,-65.95 352.32,-66.19 350.16,-59.54"/>
</a>
</g>
</g>
</g>
</svg>
